<svg width="60" height="50" viewBox="0 0 60 50" fill="none" xmlns="http://www.w3.org/2000/svg">
<path fill-rule="evenodd" clip-rule="evenodd" d="M21.8744 0.0274515C19.7484 0.230434 17.8147 1.4056 16.6289 3.23244C16.4045 3.5743 1.37315 33.5943 1.09539 34.246C-1.23357 39.78 1.18085 46.2113 6.57591 48.8608C7.77244 49.4483 8.8835 49.7688 10.3257 49.9505C10.8813 50.0146 52.5354 50.0359 53.0589 49.9611C56.2853 49.5338 58.7317 47.1087 59.2232 43.8717C59.3086 43.3375 59.3086 6.67246 59.2232 6.13829C58.7424 2.95467 56.4562 0.636399 53.1978 0.0595013C52.888 0.00608489 22.4513 -0.0259649 21.8744 0.0274515ZM53.0803 2.92262C54.7896 3.34995 55.9861 4.55717 56.36 6.24513L56.4241 6.54426V25.0157V43.4871L56.36 43.7862C55.9648 45.5276 54.6187 46.8309 52.8987 47.1301C52.4179 47.2155 10.8492 47.2049 10.3898 47.1194C8.97965 46.8737 7.96474 46.4891 6.93915 45.816C3.60596 43.626 2.22782 39.5236 3.56323 35.7737C3.79826 35.1221 18.8831 4.97381 19.1608 4.58922C19.8659 3.65977 20.8595 3.05082 21.9598 2.89057C22.056 2.87989 28.9147 2.86921 37.4827 2.86921H52.8239L53.0803 2.92262ZM22.8679 23.6482V29.1821H23.9042H24.9405V28.8937C24.9405 28.7334 24.9512 28.6052 24.9512 28.6052C24.9619 28.6052 25.0794 28.6694 25.2289 28.7334C26.8955 29.5667 28.9254 29.2035 30.218 27.8467C32.0876 25.8703 31.6389 22.6333 29.2993 21.2445C28.0707 20.518 26.5109 20.4646 25.2396 21.1056C25.1007 21.1804 24.9725 21.2338 24.9619 21.2338C24.9512 21.2338 24.9512 20.5287 24.9512 19.6633V18.0929H23.9042H22.8679V23.6482ZM32.5684 23.4025C32.579 25.8383 32.579 25.8703 32.6431 26.1588C33.2094 28.68 35.955 29.8979 38.4762 28.7441C38.5083 28.7334 38.5083 28.7869 38.5083 28.9578V29.1928H39.5339H40.5595V25.0691V20.9453H39.4484H38.3373V23.3063C38.3373 25.9131 38.3373 25.8383 38.1557 26.1908C37.504 27.4408 35.5276 27.4087 34.94 26.1481C34.7691 25.7955 34.7798 25.8276 34.7798 23.285V20.9453H33.6687H32.5577L32.5684 23.4025ZM41.8308 20.9667C41.8415 20.9881 42.4504 22.7401 43.1875 24.8768L44.5336 28.7441L44.1811 29.9193C43.9888 30.571 43.8285 31.1051 43.8285 31.1158C43.8285 31.1265 43.9461 31.0838 44.0956 31.0197C44.6405 30.7953 45.2708 30.6778 45.9118 30.6778C46.2537 30.6778 46.3071 30.6671 46.3177 30.6244C46.3284 30.5817 49.2984 21.1056 49.3411 20.9774C49.3518 20.9346 49.2877 20.924 48.198 20.924H47.0335L46.3498 23.2743C45.634 25.7314 45.634 25.7421 45.602 25.6673C45.5913 25.6353 44.6512 22.5692 44.2131 21.159L44.1384 20.924H42.9739C42.0658 20.9346 41.8201 20.9453 41.8308 20.9667ZM27.6861 22.8256C29.3954 23.285 29.8762 25.5391 28.4873 26.6395C27.1092 27.7399 25.0687 26.8425 24.9512 25.0798C24.855 23.6055 26.2652 22.441 27.6861 22.8256Z" fill="black"/>
<path fill-rule="evenodd" clip-rule="evenodd" d="M26.9916 9.64251C27.0023 9.66388 27.6219 11.5762 28.3698 13.8838L29.7372 18.093H30.9978H32.2585L32.5897 17.0781C32.7713 16.5225 33.1238 15.4329 33.3695 14.6637C33.6153 13.8945 33.8289 13.2748 33.8396 13.2855C33.8503 13.2962 34.2028 14.3859 34.6302 15.6999L35.3994 18.093L36.66 18.0823L37.9206 18.0716L39.2881 13.8624C40.0359 11.5441 40.6555 9.64251 40.6555 9.63183C40.6555 9.62114 40.1641 9.61046 39.5017 9.61046H38.348L38.2091 10.0485C37.4612 12.3774 36.66 14.8132 36.6493 14.7919C36.6386 14.7812 36.254 13.606 35.7946 12.1851L34.9613 9.61046H33.8182H32.6751L32.4615 10.2621C32.3439 10.6254 31.97 11.7899 31.6175 12.8689C31.2756 13.9372 30.9765 14.8025 30.9658 14.7919C30.9551 14.7812 30.5705 13.606 30.1111 12.1851L29.2778 9.59978H28.1134C27.2266 9.59978 26.9809 9.61046 26.9916 9.64251ZM44.5549 9.62114C41.5529 10.0057 39.865 13.1359 41.2218 15.7961C42.7922 18.8622 47.1723 18.8622 48.7855 15.7961L48.903 15.5717L47.6851 15.5611L46.4673 15.5504L46.3818 15.6252C45.7515 16.1593 44.7793 16.2555 43.9674 15.8495C43.5721 15.6572 43.07 15.1444 42.9418 14.7919C42.9204 14.7491 43.0806 14.7384 46.0292 14.7384C48.7428 14.7384 49.1381 14.7278 49.1488 14.6957C49.2449 14.4393 49.2449 13.3817 49.1381 12.9436C48.6894 10.839 46.6382 9.35406 44.5549 9.62114ZM45.3348 11.6189C45.8369 11.7044 46.2322 11.9074 46.5955 12.2813C46.8198 12.5056 47.0548 12.8475 47.0548 12.933C47.0548 12.965 46.6489 12.965 44.993 12.965C43.8605 12.965 42.9311 12.9543 42.9311 12.9436C42.9311 12.933 42.9738 12.8475 43.0166 12.762C43.4652 11.9608 44.4374 11.4694 45.3348 11.6189ZM21.9171 31.8103C18.4022 32.1949 16.8959 36.5323 19.3958 39.0429C21.7782 41.4253 25.8165 40.2181 26.5536 36.9169L26.575 36.8422H25.5066H24.4383L24.3208 37.0665C23.7012 38.263 22.0773 38.5942 21.0303 37.7396C19.6736 36.6285 20.0902 34.5025 21.7675 33.9577C22.7503 33.6372 23.9896 34.2034 24.3849 35.1435L24.4276 35.2397H25.5066H26.5856L26.5643 35.1649C26.0942 33.0175 24.0858 31.5646 21.9171 31.8103ZM31.6602 31.7997C28.6262 32.1095 26.8634 35.3038 28.2522 37.996C29.3099 40.0471 31.8098 40.8698 33.893 39.8548L34.2028 39.7053V39.8762V40.0471H35.2391H36.2754V36.0516V32.056H35.2391H34.2028V32.227V32.3979L33.9251 32.259C33.2413 31.9065 32.3546 31.7249 31.6602 31.7997ZM41.9589 31.7997C41.4247 31.8531 40.8799 32.0133 40.4205 32.2377L40.1321 32.3872V32.2163V32.0454H39.0958H38.0595V36.0409V40.0365H39.0958H40.1321L40.1427 37.8464L40.1534 35.6563L40.2496 35.3786C40.4739 34.7269 41.0295 34.1713 41.6384 33.9684C41.7132 33.947 41.7452 33.9149 41.7559 33.8722C41.8948 33.1351 42.1405 32.6223 42.5999 32.0774C42.7174 31.9385 42.8029 31.8317 42.8029 31.821C42.7815 31.7997 42.0871 31.7783 41.9589 31.7997ZM45.4417 31.9065C42.8029 32.3231 42.0657 35.261 44.3413 36.2866C44.4374 36.3294 44.8968 36.511 45.3562 36.6819C46.5527 37.1199 46.7557 37.2268 46.8732 37.4832C47.1189 38.028 46.4779 38.5194 45.7835 38.3058C45.4737 38.2096 45.3135 38.0387 45.2173 37.6755C45.2066 37.6434 44.9502 37.6434 44.0528 37.6434H42.899L42.9204 37.793C43.0913 39.278 44.3413 40.2181 46.1147 40.2181C47.9629 40.2181 49.2022 39.2032 49.2556 37.6648C49.2983 36.4255 48.7214 35.7845 47.1403 35.2931C46.9266 35.229 46.6061 35.1328 46.4245 35.0687C45.6233 34.823 45.26 34.5132 45.3562 34.15C45.5164 33.5517 46.6489 33.6158 46.7343 34.2248L46.745 34.3423H47.8881C48.8496 34.3423 49.0312 34.3316 49.0312 34.2995C49.0312 34.0431 48.8389 33.4235 48.6573 33.1351C48.0911 32.2056 46.7557 31.7035 45.4417 31.9065ZM32.6538 33.947C34.8331 34.6307 34.6622 37.7289 32.4294 38.1776C30.9872 38.466 29.6304 37.1413 29.8761 35.699C30.047 34.7482 30.7308 34.0645 31.735 33.8722C31.9166 33.8295 32.408 33.8722 32.6538 33.947Z" fill="black"/>
<path fill-rule="evenodd" clip-rule="evenodd" d="M21.9706 2.87992C21.0411 3.02948 20.2292 3.43545 19.5668 4.10849C19.0968 4.57856 19.1074 4.56788 17.0562 8.67026C16.0093 10.7535 12.6013 17.5694 9.4818 23.7978C3.81966 35.1114 3.63804 35.4746 3.41369 36.2118C1.9394 41.0727 5.14438 46.2007 10.1655 47.0553C10.9027 47.1835 10.4219 47.1728 32.0129 47.1622L52.7705 47.1515L53.0696 47.0767C54.7896 46.6387 55.9755 45.4315 56.3601 43.7328L56.4242 43.4444V25.005V6.56565L56.3601 6.2772C55.9541 4.45036 54.5332 3.12563 52.7171 2.87992C52.3645 2.8265 22.2697 2.83718 21.9706 2.87992ZM29.31 9.62107C29.3207 9.65312 29.7053 10.8069 30.154 12.1851C30.6027 13.5739 30.9766 14.717 30.9873 14.7277C30.9979 14.7384 31.3825 13.5846 31.8419 12.1637L32.6752 9.57834L33.829 9.56766L34.9828 9.55697L35.8161 12.121C36.2755 13.5312 36.6494 14.7063 36.6601 14.7277C36.6708 14.7491 36.9379 13.9585 37.2477 12.9863C37.5682 12.0141 37.9421 10.839 38.0916 10.3903L38.3587 9.56766H39.5232C40.1642 9.56766 40.6877 9.57834 40.6877 9.58902C40.6877 9.59971 40.0681 11.5227 39.3095 13.8517L37.9314 18.0929L36.6601 18.1036L35.3888 18.1143L34.6196 15.7212C34.1922 14.4072 33.8397 13.3175 33.829 13.3068C33.8183 13.2961 33.4658 14.3751 33.0385 15.6892L32.2586 18.0929L30.9873 18.1036C30.2928 18.1036 29.7159 18.1036 29.7159 18.0929C29.7159 18.0822 29.0963 16.1806 28.3485 13.8623C27.6007 11.5441 26.981 9.62107 26.981 9.59971C26.981 9.54629 29.2779 9.55697 29.31 9.62107ZM45.4845 9.62107C47.2472 9.74927 48.8497 11.2236 49.2023 13.0397C49.2984 13.5632 49.2877 14.5781 49.1809 14.7597C49.1702 14.7811 48.0805 14.7918 46.0721 14.7918C44.3734 14.7918 42.9846 14.8025 42.9846 14.8132C42.9846 14.8238 43.0273 14.9093 43.0914 15.0055C43.7858 16.1592 45.3242 16.4584 46.3712 15.6571L46.5208 15.5396H47.7173H48.9138L48.8925 15.6144C48.7322 16.234 47.76 17.2596 46.9054 17.6763C43.7858 19.2253 40.2497 16.5866 40.8159 13.1145C41.1471 11.0954 43.1342 9.46082 45.0999 9.58902C45.1747 9.59971 45.3456 9.61039 45.4845 9.62107ZM44.4696 11.6723C43.8499 11.8325 42.9739 12.559 42.9739 12.9222C42.9739 12.9329 43.8927 12.9436 45.0144 12.9436H47.0549L46.9588 12.7833C46.478 11.8859 45.4311 11.4265 44.4696 11.6723ZM24.9405 19.6847C24.9405 20.5501 24.9512 21.2552 24.9619 21.2445C24.9726 21.2338 25.0901 21.1804 25.2183 21.1163C28.0173 19.674 31.3932 21.7573 31.3932 24.9302C31.3932 28.1032 28.0173 30.1864 25.2183 28.7442C25.0901 28.6801 24.9832 28.616 24.9619 28.616C24.9512 28.616 24.9405 28.7442 24.9405 28.9151V29.2249L23.8936 29.2142L22.8466 29.2035L22.8359 23.6589L22.8252 18.1143H23.8722H24.9192V19.6847M34.7905 23.3277L34.8012 25.7528L34.876 25.9451C35.4422 27.3981 37.5147 27.5263 38.1771 26.1374C38.3587 25.7635 38.3587 25.7849 38.3587 23.2316V20.9026H39.4698H40.5808V25.0584V29.2142H39.5553H38.5297V28.9685V28.7228L38.2733 28.8296C35.8161 29.898 32.9957 28.4557 32.6218 25.9345C32.5898 25.6994 32.5791 25.24 32.5791 23.2636V20.8813H33.6901H34.8012L34.7905 23.3277ZM44.1918 21.0415C44.2132 21.1163 44.5444 22.1739 44.9183 23.3918C45.6981 25.9558 45.6234 25.7101 45.6554 25.6353C45.6661 25.6033 45.9866 24.5243 46.3605 23.2423L47.0442 20.9026H48.2087H49.3732L49.3518 20.9988C49.3411 21.0522 48.6574 23.2423 47.8348 25.881L46.3285 30.6672L45.8584 30.6885C45.164 30.7206 44.6726 30.8167 44.1063 31.0411C43.9568 31.1052 43.8393 31.1479 43.8286 31.1372C43.8286 31.1372 43.9781 30.5924 44.1704 29.9407L44.523 28.7442L43.1662 24.8341C42.4184 22.6867 41.8094 20.924 41.8201 20.9133C41.8308 20.9026 42.3543 20.9026 42.9953 20.9026H44.1491L44.1918 21.0415ZM26.8315 22.7829C25.0473 23.0606 24.3316 25.1973 25.6029 26.4686C26.8956 27.7613 29.0643 27.0028 29.2886 25.1866C29.4595 23.7978 28.1882 22.5692 26.8315 22.7829ZM23.2953 31.8637C24.8978 32.2162 26.34 33.6478 26.5751 35.1114L26.5964 35.2289H25.5067H24.4277L24.3209 35.0259C23.3273 33.1457 20.5176 33.6798 20.2506 35.8058C19.9621 38.1241 23.2312 39.1069 24.3209 37.0237L24.4277 36.8207H25.5067H26.5857L26.5644 36.9382C26.4682 37.5258 26.0088 38.3912 25.5067 38.9253C23.6372 40.9231 20.3681 40.656 18.851 38.3805C17.1097 35.7738 18.6694 32.2696 21.7889 31.7782C22.0881 31.7675 22.9962 31.7996 23.2953 31.8637ZM32.7393 31.8316C33.1453 31.9064 33.5192 32.0239 33.8931 32.2055C34.0534 32.2803 34.1816 32.3444 34.1922 32.3444C34.1922 32.3444 34.2029 32.2696 34.2029 32.1735V32.0026H35.2499H36.2969L36.2862 36.0195L36.2755 40.0364L35.2285 40.0471L34.1816 40.0578V39.8868C34.1816 39.7907 34.1709 39.7159 34.1602 39.7266C34.1495 39.7373 34.0106 39.8014 33.8611 39.8761C32.8355 40.3889 31.5214 40.4424 30.4638 40.0257C27.9425 39.0322 26.9597 35.9981 28.4233 33.7226C29.3634 32.291 31.0727 31.5432 32.7393 31.8316ZM42.7282 31.7996L42.8564 31.8209L42.6534 32.0346C42.194 32.5367 41.9056 33.1136 41.7667 33.8187C41.7453 33.9362 41.7346 33.9469 41.5958 34.0003C40.9227 34.2247 40.3992 34.7909 40.2069 35.5067C40.1428 35.731 40.1428 35.7631 40.1322 37.8997L40.1215 40.0684H39.0852H38.0489V36.0408V32.0132H39.0852H40.1215V32.1842C40.1215 32.2803 40.1215 32.3551 40.1322 32.3551C40.1428 32.3551 40.2924 32.2803 40.474 32.1949C40.9227 31.9812 41.35 31.853 41.8094 31.7996C41.9697 31.7782 42.5893 31.7782 42.7282 31.7996ZM46.478 31.885C47.8562 31.9919 49.0206 33.0816 49.0206 34.2567V34.3422H47.8775H46.7344L46.6917 34.1713C46.5208 33.541 45.3456 33.6264 45.3456 34.2674C45.3456 34.6307 45.7088 34.855 46.7985 35.1648C48.6467 35.7097 49.2664 36.2972 49.2664 37.5365C49.2771 39.1817 47.9203 40.2714 45.9332 40.218C44.2345 40.1646 43.1021 39.2565 42.8884 37.7609L42.8671 37.6433H44.0422H45.2174L45.2708 37.8036C45.5165 38.6048 47.0549 38.4553 46.9054 37.6433C46.8413 37.2694 46.6917 37.184 45.3456 36.6818C43.4653 35.9874 42.9953 35.528 42.9953 34.3956C42.9953 33.0282 44.0957 31.9812 45.6768 31.853C45.9439 31.8423 46.0507 31.8423 46.478 31.885ZM31.5001 33.9362C29.7587 34.4063 29.2779 36.6071 30.6668 37.7181C32.077 38.8506 34.1816 37.8463 34.1816 36.0408C34.1922 34.6413 32.8355 33.573 31.5001 33.9362Z" fill="white"/>
<path fill-rule="evenodd" clip-rule="evenodd" d="M27.5577 9.59973C27.8782 9.59973 28.4017 9.59973 28.7222 9.59973C29.0427 9.59973 28.7756 9.58905 28.1346 9.58905C27.4936 9.58905 27.2372 9.58905 27.5577 9.59973ZM32.675 9.59973C32.6643 9.6211 33.519 9.6211 34.5873 9.59973C34.8116 9.59973 34.4804 9.58905 33.8501 9.58905C33.1985 9.57837 32.675 9.57837 32.675 9.59973ZM38.9354 9.59973C39.2666 9.59973 39.8007 9.59973 40.1105 9.59973C40.431 9.59973 40.164 9.58905 39.5123 9.58905C38.8606 9.58905 38.6042 9.58905 38.9354 9.59973ZM44.9394 11.6082C44.9821 11.6189 45.0462 11.6189 45.0783 11.6082C45.1103 11.5975 45.0783 11.5975 45.0035 11.5975C44.9287 11.5975 44.8967 11.5975 44.9394 11.6082ZM43.4117 12.2706C43.4758 12.2278 43.5292 12.1744 43.5292 12.1744C43.5185 12.153 43.4971 12.1744 43.4117 12.2706ZM42.9523 12.9436C42.9523 12.9543 43.8817 12.965 45.0142 12.9543C46.1466 12.9543 46.7449 12.9436 46.3496 12.9436C44.4373 12.9222 42.9523 12.9222 42.9523 12.9436ZM40.7409 13.8624C40.7409 13.9799 40.7409 14.0333 40.7515 13.9692C40.7622 13.9051 40.7622 13.8089 40.7515 13.7555C40.7515 13.6914 40.7409 13.7448 40.7409 13.8624ZM46.0718 14.7491L42.963 14.7598L46.0611 14.7704C48.1016 14.7704 49.17 14.7704 49.1807 14.7491C49.1913 14.7384 49.1913 14.7277 49.1913 14.7277C49.1807 14.7277 47.7811 14.7384 46.0718 14.7491ZM47.0867 15.5503C47.4179 15.5503 47.9734 15.5503 48.3046 15.5503C48.6358 15.5503 48.3687 15.5396 47.6957 15.5396C47.0226 15.5396 46.7449 15.5396 47.0867 15.5503ZM30.987 18.0929L29.705 18.1036L30.9763 18.1143C31.7989 18.1143 32.2583 18.1143 32.269 18.0929C32.2797 18.0823 32.2797 18.0716 32.2797 18.0716C32.269 18.0716 31.6814 18.0823 30.987 18.0929ZM36.0082 18.1143C36.3607 18.1143 36.9376 18.1143 37.2902 18.1143C37.6427 18.1143 37.3543 18.1036 36.6492 18.1036C35.9441 18.1036 35.6556 18.1036 36.0082 18.1143ZM22.857 23.6483V29.2036H23.8933H24.9296L23.904 29.1929L22.8784 29.1822L22.857 23.6483ZM27.0342 20.6676C27.0876 20.6783 27.1731 20.6783 27.2158 20.6676C27.2692 20.6569 27.2265 20.6569 27.1197 20.6569C27.0235 20.6569 26.9808 20.6569 27.0342 20.6676ZM33.1023 20.924C33.4014 20.924 33.9142 20.924 34.2241 20.924C34.5339 20.924 34.2881 20.9133 33.6685 20.9133C33.0596 20.924 32.8032 20.924 33.1023 20.924ZM38.882 20.924C39.1811 20.924 39.6939 20.924 40.0037 20.924C40.3135 20.924 40.0678 20.9133 39.4482 20.9133C38.8392 20.924 38.5828 20.924 38.882 20.924ZM41.8199 20.924C41.8092 20.9454 42.6959 20.9454 43.7535 20.924C43.9779 20.924 43.6467 20.9133 42.995 20.9133C42.354 20.9133 41.8199 20.9133 41.8199 20.924ZM47.6209 20.924C47.9521 20.924 48.4862 20.924 48.7961 20.924C49.1166 20.924 48.8495 20.9133 48.1978 20.9133C47.5461 20.9133 47.2897 20.924 47.6209 20.924ZM30.1217 21.8962C30.1751 21.9496 30.2285 21.9923 30.2285 21.9923C30.2392 21.9923 30.1964 21.9496 30.143 21.8962C30.0896 21.8428 30.0362 21.8 30.0362 21.8C30.0255 21.8 30.0683 21.8428 30.1217 21.8962ZM25.5706 23.3919C25.4958 23.4666 25.4531 23.5201 25.4531 23.5201C25.4638 23.5201 25.5278 23.4666 25.5919 23.3919C25.6667 23.3171 25.7095 23.2637 25.7095 23.2637C25.7095 23.2637 25.6454 23.3278 25.5706 23.3919ZM28.6581 23.3919C28.7115 23.4453 28.7649 23.488 28.7649 23.488C28.7756 23.488 28.7328 23.4453 28.6794 23.3919C28.626 23.3384 28.5726 23.2957 28.5726 23.2957C28.5619 23.2957 28.594 23.3384 28.6581 23.3919ZM31.393 24.9303C31.393 24.9837 31.4037 25.005 31.4037 24.9837C31.4143 24.9516 31.4143 24.9089 31.4037 24.8875C31.393 24.8555 31.393 24.8768 31.393 24.9303ZM25.5706 26.4686C25.6454 26.5434 25.6988 26.6075 25.7095 26.6075C25.7308 26.5968 25.7095 26.5755 25.5706 26.4686ZM28.6474 26.4793C28.7115 26.4366 28.7649 26.3832 28.7649 26.3832C28.7649 26.3618 28.7435 26.3832 28.6474 26.4793ZM33.6578 28.0284C33.7647 28.1352 33.8501 28.2207 33.8608 28.2207C33.8715 28.2207 33.7967 28.1352 33.6899 28.0284C33.5831 27.9216 33.4976 27.8361 33.4869 27.8361C33.4762 27.8361 33.551 27.9216 33.6578 28.0284ZM30.1323 27.9643C30.2285 27.8895 30.2499 27.8682 30.2285 27.8682C30.2178 27.8682 30.1751 27.9109 30.1323 27.9643ZM27.0342 29.2143C27.0876 29.2249 27.1731 29.2249 27.2158 29.2143C27.2692 29.2036 27.2265 29.2036 27.1197 29.2036C27.0235 29.2036 26.9808 29.2036 27.0342 29.2143ZM36.4675 29.2143C36.521 29.2249 36.6064 29.2249 36.6598 29.2143C36.7133 29.2036 36.6705 29.2036 36.5637 29.2036C36.4569 29.2036 36.4141 29.2036 36.4675 29.2143ZM39.0315 29.2143C39.32 29.2143 39.79 29.2143 40.0678 29.2143C40.3456 29.2143 40.1105 29.2036 39.5443 29.2036C38.9781 29.2036 38.7431 29.2036 39.0315 29.2143ZM36.2859 36.0088L36.2752 40.0257L35.2283 40.0364L34.1813 40.0471L35.2283 40.0578C36.0402 40.0578 36.2752 40.0578 36.2859 40.0257C36.2966 40.0044 36.2966 38.1882 36.2966 35.9875L36.2859 31.9919V36.0088ZM22.3229 33.8722C22.3763 33.8828 22.4511 33.8828 22.4938 33.8722C22.5365 33.8615 22.4938 33.8615 22.3976 33.8615C22.3015 33.8615 22.2694 33.8615 22.3229 33.8722ZM31.9592 33.8722C32.0126 33.8828 32.0874 33.8828 32.1301 33.8722C32.1729 33.8615 32.1301 33.8615 32.034 33.8615C31.9378 33.8615 31.9058 33.8615 31.9592 33.8722ZM18.135 36.0409C18.135 36.1157 18.1457 36.137 18.1457 36.105C18.1564 36.0729 18.1564 36.0088 18.1457 35.9768C18.135 35.934 18.135 35.9661 18.135 36.0409ZM20.7738 37.4831C20.7738 37.4831 20.8165 37.5258 20.8699 37.5793L20.9661 37.6647L20.8806 37.5686C20.7952 37.4831 20.7738 37.4617 20.7738 37.4831ZM33.5403 37.5793C33.6472 37.4938 33.6685 37.4724 33.6472 37.4724C33.6472 37.4724 33.5937 37.5258 33.5403 37.5793ZM19.2995 38.9788C19.2995 38.9788 19.3422 39.0215 19.3956 39.0749L19.4918 39.1604L19.4063 39.0642C19.3315 38.9788 19.2995 38.9574 19.2995 38.9788ZM38.5721 40.0578C38.8606 40.0578 39.3307 40.0578 39.6191 40.0578C39.9076 40.0578 39.6725 40.0471 39.0956 40.0471C38.5187 40.0471 38.2837 40.0471 38.5721 40.0578ZM5.57147 44.6943C5.73172 44.8546 5.85992 44.9828 5.8706 44.9828C5.88128 44.9828 5.75308 44.8546 5.60352 44.6943C5.44327 44.5341 5.31507 44.4059 5.30438 44.4059C5.2937 44.4059 5.41122 44.5341 5.57147 44.6943ZM55.3022 45.7947C55.3983 45.7199 55.4197 45.6986 55.3983 45.6986C55.3876 45.6986 55.3449 45.7413 55.3022 45.7947ZM55.0458 46.0511C55.1419 45.9763 55.1633 45.955 55.1419 45.955C55.1312 45.955 55.0885 45.9977 55.0458 46.0511Z" fill="black"/>
<path fill-rule="evenodd" clip-rule="evenodd" d="M41.9802 10.8496C42.0763 10.7748 42.0977 10.7534 42.0763 10.7534C42.0763 10.7534 42.0336 10.7962 41.9802 10.8496ZM49.2555 13.8409C49.2555 13.9477 49.2555 13.9905 49.2662 13.937C49.2768 13.8729 49.2768 13.7875 49.2662 13.7341C49.2662 13.6806 49.2555 13.7341 49.2555 13.8409ZM44.7792 18.1035C44.8112 18.1142 44.8646 18.1142 44.8967 18.1035C44.9287 18.0928 44.8967 18.0928 44.8326 18.0928C44.7685 18.0928 44.7471 18.1035 44.7792 18.1035ZM45.1317 18.1035C45.1638 18.1142 45.2172 18.1142 45.2492 18.1035C45.2813 18.0928 45.2492 18.0928 45.1851 18.0928C45.121 18.0928 45.089 18.1035 45.1317 18.1035ZM42.7387 31.917L42.6532 32.0238L42.7493 31.9277C42.8028 31.8743 42.8455 31.8315 42.8348 31.8209C42.8241 31.8209 42.7814 31.8636 42.7387 31.917ZM34.7155 32.0345C35.004 32.0345 35.474 32.0345 35.7625 32.0345C36.0509 32.0345 35.8159 32.0238 35.239 32.0238C34.6621 32.0238 34.4271 32.0238 34.7155 32.0345ZM38.5722 32.0345C38.8606 32.0345 39.3307 32.0345 39.6191 32.0345C39.9076 32.0345 39.6726 32.0238 39.0957 32.0238C38.5188 32.0238 38.2837 32.0238 38.5722 32.0345ZM25.3997 33.0281C25.5172 33.1563 25.5493 33.1776 25.5493 33.1563C25.5493 33.1456 25.4852 33.0815 25.3997 33.0281ZM29 33.0281C28.9252 33.1029 28.8824 33.1563 28.8824 33.1563C28.8931 33.1563 28.9572 33.1029 29.0213 33.0281C29.0961 32.9533 29.1388 32.8999 29.1388 32.8999C29.1282 32.8999 29.0641 32.964 29 33.0281ZM43.4331 35.6668C43.4331 35.6668 43.4758 35.7096 43.5292 35.763L43.6254 35.8485L43.5399 35.7523C43.4651 35.6668 43.4331 35.6455 43.4331 35.6668ZM48.6145 36.0194C48.6145 36.0194 48.6572 36.0621 48.7106 36.1155L48.8068 36.201L48.7213 36.1049C48.6358 36.0087 48.6145 35.998 48.6145 36.0194ZM49.2555 37.5578C49.2555 37.6326 49.2662 37.6539 49.2662 37.6219C49.2768 37.5898 49.2768 37.5257 49.2662 37.4937C49.2662 37.4616 49.2555 37.4937 49.2555 37.5578ZM48.5397 39.3205C48.6358 39.2458 48.6572 39.2244 48.6358 39.2244C48.6252 39.2244 48.5824 39.2671 48.5397 39.3205Z" fill="black"/>
</svg>
