<svg width="123" height="28" viewBox="0 0 123 28" fill="none" xmlns="http://www.w3.org/2000/svg">
<path fill-rule="evenodd" clip-rule="evenodd" d="M32.6386 0.351318L32.832 0.630094L23.0421 26.0736H20.628L29.6028 2.58224H1.10516L0.347656 0.351318H32.6386Z" fill="url(#paint0_linear_6788_5825)"/>
<path fill-rule="evenodd" clip-rule="evenodd" d="M40.108 23.669V26.4794C39.0316 26.8683 37.8048 27.4667 35.2922 27.4667C29.8781 27.4667 27.3939 24.1777 27.3939 19.2145C27.3939 14.6994 30.2364 11.5008 34.5442 11.5008C39.6293 11.5008 41.2749 15.208 41.2749 20.1114H30.3852C30.3852 23.1312 32.749 25.1942 35.4112 25.1942C37.2663 25.1942 39.4198 24.2368 40.108 23.669ZM30.3852 18.0184H38.2828C38.2828 15.686 36.9065 13.7733 34.4837 13.7733C31.7317 13.7726 30.5954 16.0451 30.3852 18.0184ZM44.4056 26.629L44.3859 24.0047C45.4923 24.7221 47.2474 25.1942 48.0552 25.1942C49.3426 25.1942 50.9269 24.6557 50.9269 23.0107C50.9269 20.2303 44.3159 20.4704 44.3159 16.1954C44.3159 13.0253 46.6796 11.5008 49.7009 11.5008C51.0174 11.5008 52.0945 11.7701 53.2009 12.0992L53.2118 14.6424C52.5842 14.2535 50.6583 13.7733 50.0001 13.7733C48.5646 13.7733 47.3079 14.3717 47.3079 15.6276C47.3079 18.7365 53.919 17.8389 53.919 22.713C53.919 25.9714 51.3166 27.4667 48.5945 27.4667C47.1583 27.466 45.6922 27.3164 44.4056 26.629ZM76.6185 15.3832L76.6288 12.9355C78.0358 12.0992 79.7106 11.5008 81.6547 11.5008C86.0217 11.5008 87.6841 13.6536 87.6841 17.8097L87.6855 27.107H85.2736V25.1337H85.2138C84.557 26.0612 83.0602 27.466 80.4871 27.466C77.1972 27.466 74.8941 26.0306 74.8941 22.7123C74.8941 18.8846 79.0815 17.6885 81.9838 17.6885C83.0902 17.6885 83.8681 17.6885 84.9759 17.7491C84.9759 15.1183 84.0184 13.7726 81.2059 13.7726C79.6208 13.7726 77.7562 14.4272 76.6185 15.3832ZM84.9759 21.1878V19.8421C84.3775 19.8421 83.7783 19.7822 83.1799 19.7822C81.6547 19.7822 77.8847 20.0209 77.8847 22.713C77.8847 24.3265 79.4413 25.1942 80.7271 25.1942C83.509 25.1942 84.9759 23.4596 84.9759 21.1878ZM91.5438 27.107V11.8591H94.2148V14.2812H94.2732C95.111 12.5473 97.0427 11.5008 99.1663 11.5008C103.114 11.5008 104.88 13.9521 104.88 18.0483V27.107H102.171V19.2145C102.171 15.6568 101.393 13.9222 98.9408 13.7733C95.7379 13.7733 94.3031 16.3443 94.3031 20.0522V27.1077L91.5438 27.107ZM108.827 27.1084V3.71191H111.484V18.0483L117.617 11.8598H121.446L114.356 18.6168L122.344 27.1084H118.305L111.484 19.2743V27.1084H108.827ZM68.6954 20.9134C68.6954 17.6294 66.1769 16.8259 63.017 16.7252V14.6811C66.1412 14.5936 68.3166 13.8908 68.3166 10.8433C68.3166 7.97744 65.8383 7.29072 63.9796 7.29072H60.4037V24.7498H63.0287C65.8573 24.7498 68.6954 24.1528 68.6954 20.9134ZM57.5751 27.1084V4.93429H63.2987C67.8956 4.93429 71.0642 6.4274 71.0642 10.5251C71.0642 13.5748 69.2894 15.1 66.5002 15.7984V15.8612C69.5105 16.1173 71.6356 18.0855 71.6356 21.1987C71.6356 25.9634 67.7044 27.1084 63.2031 27.1084H57.5751ZM18.7636 20.1975L24.0464 6.31063H4.82569L10.1881 20.1975L14.4448 8.89111L18.7636 20.1975ZM18.7906 27.6572L14.4448 16.0626L10.1341 27.6572L0.927246 3.71483H27.9456L18.7906 27.6572Z" fill="black"/>
<defs>
<linearGradient id="paint0_linear_6788_5825" x1="25.7254" y1="5.57097" x2="13.1497" y2="15.7835" gradientUnits="userSpaceOnUse">
<stop/>
<stop offset="0.86" stop-opacity="0"/>
</linearGradient>
</defs>
</svg>
