<svg width="108" height="32" viewBox="0 0 108 32" fill="none" xmlns="http://www.w3.org/2000/svg">
<path d="M23.6355 22.7216C23.2915 22.9871 16.3758 30.0735 8.20041 29.0224C0.0250688 27.9687 5.45904 18.726 7.66677 15.9332C9.87449 13.1377 19.2417 3.04716 27.5661 2.63542C27.5661 2.63542 33.8696 2.10448 27.799 9.00666L25.51 11.0491C25.51 11.0491 25.7972 11.9431 26.7778 11.3038C27.7584 10.6645 34.9125 5.7804 29.8875 1.69544C26.3254 -1.20575 18.681 1.47061 13.3987 4.65352C13.3987 4.65352 13.3445 4.68873 13.2416 4.74562C11.7788 5.64225 10.5029 6.57139 9.55484 7.4301C6.03874 10.3421 1.25489 15.3969 0.407018 21.825C0.333879 22.2882 0.293246 22.7514 0.287829 23.2146V23.2255C0.268866 25.0404 0.816056 26.8255 2.21112 28.4563C2.77998 29.1118 5.79494 32.2378 10.9472 31.4198C11.3291 31.3493 11.7328 31.2654 12.1445 31.1624C12.1933 31.1489 12.242 31.1408 12.2881 31.1272C15.6687 30.2631 20.0354 28.161 24.1068 23.2065C24.1068 23.2065 23.9822 22.4561 23.6382 22.7216M70.8699 24.3605C69.7999 24.3605 69.0577 25.1244 69.0577 26.2377C69.0577 27.3511 69.7999 28.0906 70.832 28.0906C71.9399 28.0906 72.6632 27.3077 72.6632 26.2377C72.6442 25.1054 71.9155 24.3605 70.8699 24.3605ZM90.5877 24.3605C89.515 24.3605 88.7728 25.1244 88.7728 26.2377C88.7728 27.3511 89.5177 28.0906 90.5443 28.0906C91.6577 28.0906 92.381 27.3077 92.381 26.2377C92.362 25.1054 91.6387 24.3605 90.5877 24.3605ZM78.0944 22.02C78.6877 22.02 79.0859 22.1257 79.3486 22.2449L79.7008 20.5735C79.2267 20.3974 78.5766 20.2972 77.9888 20.2972C75.3016 20.2972 73.8469 22.0227 73.8469 24.1384C73.8469 26.3975 75.3395 27.8305 77.6773 27.8305C78.536 27.8305 79.289 27.6815 79.6872 27.4892L79.4191 25.8368C79.0832 25.9831 78.6687 26.0752 78.1378 26.0752C77.0434 26.0752 76.1549 25.3628 76.1549 24.0517C76.1413 22.8706 76.9134 22.0254 78.0917 22.0254M84.1487 26.2323C83.1898 26.2323 82.6751 25.3005 82.6751 24.0598C82.6751 22.9979 83.0869 21.8873 84.1487 21.8873C85.2106 21.8873 85.5817 22.9817 85.5817 24.049C85.5817 25.3628 85.0372 26.235 84.1487 26.235M84.2246 20.2782C81.8895 20.2782 80.3536 21.7735 80.3536 24.1194C80.3536 26.4653 81.9789 27.8441 84.0919 27.8441C86.026 27.8441 87.9032 26.6332 87.9032 23.9867C87.9032 21.8033 86.4242 20.2782 84.2246 20.2782ZM96.428 25.8612C96.8397 25.4657 97.2109 25.0052 97.6091 24.5474L99.7843 21.8141V20.4543H93.8708V22.2449H97.0321V22.2747C96.6312 22.6999 96.3088 23.0738 95.8916 23.5424L93.6189 26.3921V27.6761H99.8953V25.891H96.4226V25.8585L96.428 25.8612ZM104.966 25.0485C104.966 25.184 104.953 25.3167 104.92 25.4359C104.774 25.8937 104.3 26.2621 103.755 26.2621C103.254 26.2621 102.87 25.9804 102.87 25.4061C102.87 24.5501 103.783 24.2711 104.966 24.2711V25.0512V25.0485ZM107.136 25.937V23.4097C107.136 21.695 106.383 20.2782 103.978 20.2782C102.661 20.2782 101.67 20.6493 101.169 20.9284L101.583 22.3776C102.057 22.0823 102.837 21.8304 103.579 21.8304C104.685 21.8304 104.893 22.3776 104.893 22.7785V22.8679C102.339 22.8679 100.654 23.7537 100.654 25.6282C100.654 26.7822 101.526 27.8441 102.989 27.8441C103.848 27.8441 104.587 27.5353 105.061 26.9583H105.102L105.235 27.6815H107.255C107.171 27.286 107.139 26.6197 107.139 25.9397M53.1269 16.0497C53.1269 16.0497 53.3084 15.9657 53.6551 15.8384C53.7526 15.8005 53.9124 15.7436 54.14 15.6786C54.8253 15.47 55.852 15.237 57.1549 15.1341C57.3744 14.6763 58.103 12.8261 55.1531 13.1052C55.0583 13.1052 54.9662 13.1106 54.866 13.1187C53.563 13.246 51.9241 14.0533 51.6857 14.1752C51.0112 14.5219 50.3286 14.9391 49.944 15.3698C50.3449 14.8253 51.1954 13.4492 49.8627 13.1323C48.1886 12.734 48.3403 12.818 48.1534 13.2812C48.129 13.3463 48.0152 13.5792 47.8256 13.9341L41.3162 24.8156C41.4706 25.3492 43.8436 30.0382 44.9922 26.9583C46.287 23.5532 47.8067 19.9125 48.5299 18.8561C49.0446 18.1084 51.3119 16.8 53.1323 16.0497H53.1269ZM34.0538 22.5753C32.6316 23.965 31.1851 25.035 30.0067 25.2192C26.5584 25.7664 28.7309 21.7925 28.7309 21.7925C29.4812 20.2701 30.5458 19.0917 31.7242 18.1789C31.7242 18.1789 35.2592 14.912 39.932 15.0718C39.932 15.0718 39.9997 16.9274 34.0538 22.5753ZM38.6968 24.0788C38.6832 23.8187 38.713 23.4205 38.8864 22.8516C38.9243 22.7623 38.9243 22.6918 38.9704 22.5889C39.4146 21.3184 40.5225 19.3247 43.142 16.3395L44.166 15.2777C44.166 15.2777 44.7619 14.4948 43.9357 13.8745L43.226 13.2623C43.226 13.2623 42.5542 12.8559 41.4652 13.5657L41.1943 13.7147C41.1943 13.7147 38.9731 11.851 34.2217 14.0424C34.2217 14.0424 34.1973 14.0533 34.1459 14.0722C33.9373 14.1725 33.7206 14.2781 33.4985 14.3946C33.4985 14.3946 33.3115 14.4704 33.0163 14.6573C32.6506 14.8605 32.2768 15.088 31.884 15.34C30.5783 16.1635 28.9584 17.3554 27.6554 18.8534C27.0568 19.4656 26.5015 20.113 26.0464 20.7875C25.8215 21.1207 25.6184 21.4647 25.4477 21.806C25.4477 21.806 24.031 24.6232 25.231 26.4328C25.5669 26.9637 26.1276 27.3944 27.0026 27.649C27.4062 27.8116 27.9074 27.901 28.5142 27.8928C28.59 27.8901 28.6631 27.8874 28.7363 27.882H28.7823C32.1684 27.714 34.964 25.2463 35.7143 24.5284C35.7143 24.5284 35.801 25.6228 36.5188 26.5817C36.6028 26.7036 36.7003 26.8147 36.7979 26.9149C37.3938 27.5326 38.3121 28.0201 39.7261 27.9931C40.7094 26.9908 39.913 25.1108 39.6774 24.6151C39.2927 24.6205 38.8322 24.5284 38.6968 24.0815M66.9421 15.8763C68.6459 15.7409 70.0545 15.7707 69.9435 15.1449C69.8297 14.5165 69.5019 13.0374 68.0418 12.5986C66.8256 12.2356 62.784 13.5332 60.281 14.6167C60.281 14.6167 59.9965 14.7305 59.5767 14.9336C59.5171 14.9607 59.4602 14.9878 59.406 15.0149C59.406 15.0149 59.3979 15.0176 59.3979 15.0203C59.3274 15.0528 59.2624 15.088 59.1974 15.1233C58.3008 15.5838 57.6615 16.0443 57.1956 16.4669C56.8597 16.7703 56.5617 17.1007 56.3477 17.4529C55.7734 18.3306 55.787 19.0403 55.9251 19.5062C55.9712 19.6931 56.0578 19.8827 56.1987 20.0642C56.2339 20.1157 56.2583 20.1455 56.2583 20.1455C56.792 20.7604 57.9757 21.2832 60.4923 21.2751C62.6702 21.2751 64.0734 21.4241 64.9592 21.611C65.203 21.6706 65.6228 21.806 65.7935 22.0769C66.1565 22.6485 65.2951 23.22 65.2707 23.2309V23.2363C64.6558 23.6833 62.8923 24.7912 59.5929 25.5063C57.8565 25.9072 56.1662 26.0779 54.8362 26.1023H54.8226C53.5901 26.1239 52.6745 26.021 52.3467 25.8585C51.2875 25.333 52.8262 24.2359 53.823 23.8431C54.8199 23.453 56.3721 22.7243 56.3721 22.7243C55.3806 22.3451 50.1607 23.3013 50.158 24.8752C50.1498 26.4463 51.7264 27.5515 51.7264 27.5515C56.2962 29.4558 62.2205 27.4025 63.7727 26.7822C64.8075 26.3705 67.2617 24.9185 67.9389 23.3311C68.7326 21.722 67.6978 20.7523 66.3596 20.1726C65.4684 19.7906 64.4472 19.5848 63.4639 19.4818C63.4016 19.4818 63.3203 19.4737 63.2147 19.4601C62.8192 19.4222 62.4318 19.4006 62.0634 19.3978C61.202 19.3951 60.2132 19.4466 59.7609 19.4764C59.6796 19.4845 59.6037 19.4872 59.5333 19.4899H59.5171C59.2651 19.4981 59.0972 19.471 58.9888 19.4412H58.9726C58.9509 19.4358 58.9319 19.4276 58.9103 19.4195C58.848 19.3951 58.8263 19.3789 58.8263 19.3789C58.5771 19.2461 58.4091 18.9996 58.8209 18.5446C60.3731 16.8271 65.4197 16.0009 66.9448 15.879" fill="black"/>
</svg>
