<svg width="45" height="42" viewBox="0 0 45 42" fill="none" xmlns="http://www.w3.org/2000/svg">
<g clip-path="url(#clip0_6788_5817)">
<path d="M42.2907 12.1256C38.7861 4.96669 31.1741 0.00439453 22.3477 0.00439453C13.5213 0.00439453 5.90926 4.96669 2.40466 12.1256L4.89726 13.2344C7.96406 6.97009 14.6257 2.62939 22.3477 2.62939C30.0697 2.62939 36.7313 6.97009 39.7981 13.2344L42.2907 12.1256ZM4.25486 14.717L1.66986 13.8182C0.814056 16.061 0.347656 18.4802 0.347656 21.0044C0.347656 23.5286 0.814056 25.9478 1.66986 28.1906L4.25486 27.2918C3.50686 25.3304 3.09766 23.2115 3.09766 21.0044C3.09766 18.7952 3.50686 16.6784 4.25486 14.717ZM2.40466 29.8832C5.90926 37.0442 13.5213 42.0044 22.3477 42.0044C31.1741 42.0044 38.7861 37.0442 42.2907 29.8832L39.7981 28.7744C36.7313 35.0387 30.0697 39.3794 22.3477 39.3794C14.6257 39.3794 7.96406 35.0387 4.89726 28.7744L2.40466 29.8832ZM40.4405 14.717C41.1885 16.6784 41.5977 18.7973 41.5977 21.0065C41.5977 23.2157 41.1885 25.3325 40.4405 27.2939L43.0255 28.1927C43.8813 25.9499 44.3477 23.5307 44.3477 21.0065C44.3477 18.4823 43.8813 16.061 43.0255 13.8203L40.4405 14.717Z" fill="black"/>
<path d="M18.4932 16.8086C17.9476 16.8086 17.3602 16.901 16.8498 17.006V12.6191L14.5618 12.8564V24.6332C15.5078 24.9188 16.7354 25.1897 17.9476 25.1897C20.702 25.1897 22.3278 24.3014 22.3278 21.0002C22.3278 17.6969 20.6998 16.8086 18.4932 16.8086ZM18.128 23.3165C17.7122 23.3165 17.347 23.2682 16.8498 23.1569V18.8435C17.2612 18.7532 17.6704 18.6818 18.128 18.6818C19.3732 18.6818 19.9694 19.2215 19.9694 20.9981C19.9716 22.7768 19.3732 23.3165 18.128 23.3165Z" fill="black"/>
<path d="M27.3945 20.0384C26.4155 20.0216 25.8017 20.0069 25.8017 19.4987C25.8017 18.833 26.2175 18.6902 27.4781 18.6902C28.2415 18.6902 29.3195 18.833 29.9993 18.9905L29.8167 17.1845C28.9389 16.9304 27.9599 16.8191 27.3131 16.8191C24.5587 16.8191 23.4983 17.7704 23.4983 19.5617C23.4983 21.29 24.6093 21.7331 26.4837 21.7646C27.6937 21.7793 28.3251 21.7478 28.3251 22.5101C28.3251 23.1758 27.7773 23.3186 26.6003 23.3186C25.2891 23.3186 24.3607 23.1275 23.6809 22.9217L23.8635 24.7277C24.7435 25.028 25.5729 25.1876 26.7829 25.1876C29.7199 25.1876 30.6307 24.2363 30.6307 22.5248C30.6285 20.3702 29.1523 20.0699 27.3945 20.0384Z" fill="black"/>
<path d="M9.25325 16.8191C8.52285 16.8191 7.54385 16.9304 6.66605 17.1845L6.48345 18.9905C7.21385 18.833 8.29185 18.6902 9.00465 18.6902C10.1993 18.6902 10.6789 18.7847 10.6789 19.7045V19.9586L9.08605 20.0384C7.32825 20.1329 5.85205 20.4185 5.85205 22.5269C5.85205 24.2384 6.76505 25.1897 9.51725 25.1897C10.7955 25.1897 12.0209 24.9209 12.9669 24.6353V19.5617C12.9669 17.7725 11.9241 16.8191 9.25325 16.8191ZM10.6789 23.2556C10.3797 23.3039 9.98145 23.3669 9.56785 23.3669C8.57345 23.3669 8.15765 23.0645 8.15765 22.4156C8.15765 21.7352 8.55585 21.6239 9.38525 21.5756L10.6789 21.4958V23.2556Z" fill="black"/>
<path d="M35.1275 16.8191C34.3971 16.8191 33.4181 16.9304 32.5403 17.1845L32.3577 18.9905C33.0881 18.833 34.1661 18.6902 34.8789 18.6902C36.0735 18.6902 36.5531 18.7847 36.5531 19.7045V19.9586L34.9603 20.0384C33.2025 20.1329 31.7263 20.3723 31.7263 22.5269C31.7263 24.2384 32.6393 25.1897 35.3915 25.1897C36.6697 25.1897 37.8951 24.9209 38.8411 24.6353V19.5617C38.8433 17.7725 37.7983 16.8191 35.1275 16.8191ZM36.5531 23.2556C36.2539 23.3039 35.8557 23.3669 35.4421 23.3669C34.4477 23.3669 34.0319 23.0645 34.0319 22.4156C34.0319 21.7352 34.4301 21.6239 35.2595 21.5756L36.5531 21.4958V23.2556Z" fill="black"/>
</g>
<defs>
<clipPath id="clip0_6788_5817">
<rect width="44" height="42" fill="white" transform="translate(0.347656 0.00439453)"/>
</clipPath>
</defs>
</svg>
