<svg width="119" height="24" viewBox="0 0 119 24" fill="none" xmlns="http://www.w3.org/2000/svg">
<g clip-path="url(#clip0_6788_714)">
<mask id="mask0_6788_714" style="mask-type:luminance" maskUnits="userSpaceOnUse" x="46" y="2" width="26" height="18">
<path d="M71.3912 2.24344C71.3781 2.22531 71.361 2.21052 71.3411 2.20025C71.3213 2.18998 71.2992 2.18452 71.2768 2.18432H68.2522C68.223 2.18454 68.1946 2.19372 68.1708 2.2106C68.147 2.22748 68.129 2.25126 68.1191 2.2787L64.0641 13.8944L60.4811 2.28389C60.4734 2.25428 60.456 2.22806 60.4317 2.20931C60.4075 2.19056 60.3777 2.18032 60.347 2.18018H57.8235C57.7928 2.18032 57.7631 2.19056 57.7388 2.20931C57.7145 2.22806 57.6972 2.25428 57.6894 2.28389L54.1002 13.8934L50.0452 2.27766C50.0359 2.25013 50.0181 2.22622 49.9944 2.20929C49.9707 2.19236 49.9423 2.18327 49.9131 2.18329H46.8885C46.8661 2.18332 46.844 2.1887 46.8241 2.19898C46.8042 2.20927 46.7871 2.22416 46.7742 2.2424C46.7611 2.26084 46.7525 2.28211 46.7493 2.30446C46.746 2.32681 46.7482 2.34962 46.7554 2.371L52.5656 19.0686C52.5749 19.0962 52.5926 19.1201 52.6163 19.137C52.64 19.1539 52.6684 19.163 52.6976 19.163H55.4841C55.5148 19.1629 55.5446 19.1526 55.5688 19.1339C55.5931 19.1151 55.6105 19.0889 55.6182 19.0593L59.0806 7.74225L62.5419 19.0593C62.5499 19.0888 62.5673 19.1149 62.5915 19.1337C62.6157 19.1524 62.6454 19.1627 62.6761 19.163H65.4626C65.4917 19.1629 65.52 19.1537 65.5437 19.1368C65.5674 19.1199 65.5851 19.0961 65.5946 19.0686L71.4047 2.371C71.4119 2.34966 71.4141 2.32695 71.411 2.30464C71.4079 2.28233 71.3998 2.26103 71.3871 2.2424" fill="white"/>
</mask>
<g mask="url(#mask0_6788_714)">
<mask id="mask1_6788_714" style="mask-type:luminance" maskUnits="userSpaceOnUse" x="-34" y="-43" width="188" height="110">
<path d="M153.182 -42.5913H-33.5413V66.5407H153.182V-42.5913Z" fill="white"/>
</mask>
<g mask="url(#mask1_6788_714)">
<path d="M72.3281 1.27466H45.8416V20.0745H72.3281V1.27466Z" fill="black"/>
</g>
</g>
<mask id="mask2_6788_714" style="mask-type:luminance" maskUnits="userSpaceOnUse" x="70" y="5" width="15" height="15">
<path d="M80.2365 15.5705C79.4933 16.2862 78.5006 16.6862 77.4676 16.6862C76.4346 16.6862 75.4419 16.2862 74.6988 15.5705C73.9951 14.7673 73.6074 13.7368 73.6074 12.6702C73.6074 11.6036 73.9951 10.5731 74.6988 9.7699C75.4417 9.05373 76.4345 8.65341 77.4676 8.65341C78.5008 8.65341 79.4935 9.05373 80.2365 9.7699C80.9401 10.5731 81.3279 11.6036 81.3279 12.6702C81.3279 13.7368 80.9401 14.7673 80.2365 15.5705ZM77.4676 5.98338C76.5676 5.96033 75.6723 6.1205 74.8363 6.45413C74.0004 6.78776 73.2414 7.28784 72.6057 7.92382C71.3588 9.19055 70.6602 10.8949 70.6602 12.6702C70.6602 14.4455 71.3588 16.1499 72.6057 17.4166C73.9161 18.6623 75.6569 19.3572 77.4671 19.3572C79.2773 19.3572 81.0181 18.6623 82.3285 17.4166C83.5754 16.1499 84.274 14.4455 84.274 12.6702C84.274 10.8949 83.5754 9.19055 82.3285 7.92382C81.6927 7.28789 80.9338 6.78784 80.0979 6.45422C79.2619 6.12059 78.3666 5.96039 77.4666 5.98338" fill="white"/>
</mask>
<g mask="url(#mask2_6788_714)">
<mask id="mask3_6788_714" style="mask-type:luminance" maskUnits="userSpaceOnUse" x="-34" y="-43" width="188" height="110">
<path d="M153.181 -42.5913H-33.5422V66.5407H153.181V-42.5913Z" fill="white"/>
</mask>
<g mask="url(#mask3_6788_714)">
<path d="M85.1855 5.07373H69.7473V20.2655H85.1855V5.07373Z" fill="black"/>
</g>
</g>
<mask id="mask4_6788_714" style="mask-type:luminance" maskUnits="userSpaceOnUse" x="86" y="5" width="8" height="15">
<path d="M93.5441 6.02384C93.5154 5.99836 93.4784 5.98401 93.44 5.9834C92.5692 6.00765 91.7255 6.29118 91.0175 6.79753C90.4104 7.21525 89.8905 7.7468 89.4869 8.36255V6.31528C89.4871 6.29694 89.4836 6.27875 89.4766 6.26177C89.4697 6.24479 89.4594 6.22934 89.4465 6.21633C89.4335 6.20331 89.4181 6.19299 89.4012 6.18594C89.3842 6.17889 89.366 6.17526 89.3476 6.17526H86.6807C86.6435 6.17553 86.608 6.19037 86.5817 6.21657C86.5555 6.24277 86.5406 6.27823 86.5403 6.31528V19.02C86.5403 19.0572 86.555 19.0929 86.5813 19.1194C86.6076 19.1458 86.6433 19.1608 86.6807 19.161H89.3476C89.366 19.1609 89.3843 19.1571 89.4012 19.15C89.4182 19.1428 89.4336 19.1324 89.4466 19.1193C89.4595 19.1062 89.4697 19.0907 89.4766 19.0737C89.4836 19.0566 89.4871 19.0384 89.4869 19.02V13.5782C89.4251 12.3759 89.7669 11.1873 90.4581 10.2003C90.8027 9.7819 91.2425 9.45155 91.7409 9.23672C92.2393 9.02189 92.7819 8.92878 93.3236 8.96512H93.4671C93.4856 8.96498 93.5039 8.96119 93.521 8.95396C93.538 8.94674 93.5534 8.93622 93.5664 8.92301C93.5793 8.9098 93.5895 8.89416 93.5964 8.877C93.6033 8.85985 93.6067 8.84151 93.6064 8.82303L93.5825 6.12651C93.5828 6.10734 93.5792 6.08832 93.5721 6.07052C93.565 6.05272 93.5544 6.0365 93.5409 6.0228" fill="white"/>
</mask>
<g mask="url(#mask4_6788_714)">
<mask id="mask5_6788_714" style="mask-type:luminance" maskUnits="userSpaceOnUse" x="-34" y="-43" width="188" height="110">
<path d="M153.182 -42.5911H-33.5413V66.5409H153.182V-42.5911Z" fill="white"/>
</mask>
<g mask="url(#mask5_6788_714)">
<path d="M94.5205 5.07397H85.6306V20.0759H94.5205V5.07397Z" fill="black"/>
</g>
</g>
<mask id="mask6_6788_714" style="mask-type:luminance" maskUnits="userSpaceOnUse" x="95" y="2" width="10" height="18">
<path d="M103.656 15.9925C103.645 15.9739 103.63 15.9579 103.612 15.9459C103.594 15.9339 103.573 15.9261 103.552 15.9231C103.53 15.9204 103.508 15.9229 103.488 15.9303C103.467 15.9377 103.449 15.9498 103.434 15.9656C103.247 16.1976 103.013 16.388 102.747 16.5244C102.482 16.6609 102.19 16.7404 101.892 16.7579C101.664 16.772 101.435 16.7352 101.223 16.6504C101.01 16.5656 100.819 16.4347 100.663 16.2674C100.354 15.8881 100.196 15.4075 100.222 14.9191V8.96087H103.417C103.435 8.96087 103.453 8.95721 103.47 8.95011C103.488 8.94301 103.503 8.93261 103.516 8.9195C103.529 8.90638 103.539 8.89083 103.546 8.87372C103.553 8.85661 103.557 8.8383 103.557 8.81982V6.12331C103.557 6.08608 103.542 6.05036 103.516 6.02394C103.489 5.99752 103.454 5.98254 103.417 5.98226H100.222V2.32952C100.222 2.29229 100.208 2.25657 100.181 2.23015C100.155 2.20373 100.119 2.18875 100.082 2.18848H97.4161C97.3788 2.18875 97.343 2.20373 97.3167 2.23015C97.2904 2.25657 97.2757 2.29229 97.2757 2.32952V5.98019H95.8201C95.7827 5.98046 95.7471 5.99544 95.7208 6.02187C95.6945 6.04829 95.6797 6.08401 95.6797 6.12124V8.81775C95.6796 8.83622 95.6831 8.85454 95.6901 8.87165C95.6971 8.88875 95.7074 8.90431 95.7204 8.91742C95.7335 8.93053 95.749 8.94094 95.7661 8.94804C95.7832 8.95514 95.8015 8.9588 95.8201 8.9588H97.2757V14.8424C97.2474 15.4467 97.3436 16.0503 97.5581 16.6161C97.7727 17.1819 98.1012 17.6979 98.5234 18.1321C98.9155 18.5272 99.3836 18.8392 99.8996 19.0493C100.416 19.2595 100.969 19.3634 101.526 19.3549C102.721 19.3443 103.866 18.8783 104.728 18.0523C104.752 18.0308 104.767 18.0017 104.772 17.97C104.777 17.9382 104.771 17.9057 104.755 17.878L103.656 15.9925Z" fill="white"/>
</mask>
<g mask="url(#mask6_6788_714)">
<mask id="mask7_6788_714" style="mask-type:luminance" maskUnits="userSpaceOnUse" x="-34" y="-43" width="188" height="110">
<path d="M153.182 -42.5913H-33.5413V66.5407H153.182V-42.5913Z" fill="white"/>
</mask>
<g mask="url(#mask7_6788_714)">
<path d="M105.681 1.27466H94.7668V20.2654H105.681V1.27466Z" fill="black"/>
</g>
</g>
<mask id="mask8_6788_714" style="mask-type:luminance" maskUnits="userSpaceOnUse" x="106" y="1" width="13" height="19">
<path d="M118.557 1.18164H106.609V19.1653H118.557V1.18164Z" fill="white"/>
</mask>
<g mask="url(#mask8_6788_714)">
<mask id="mask9_6788_714" style="mask-type:luminance" maskUnits="userSpaceOnUse" x="-34" y="-43" width="188" height="110">
<path d="M153.182 -42.5911H-33.541V66.5409H153.182V-42.5911Z" fill="white"/>
</mask>
<g mask="url(#mask9_6788_714)">
<mask id="mask10_6788_714" style="mask-type:luminance" maskUnits="userSpaceOnUse" x="106" y="1" width="13" height="19">
<path d="M118.628 1.15259H106.593V19.2503H118.628V1.15259Z" fill="white"/>
</mask>
<g mask="url(#mask10_6788_714)">
<mask id="mask11_6788_714" style="mask-type:luminance" maskUnits="userSpaceOnUse" x="106" y="1" width="13" height="19">
<path d="M117.196 7.33799C116.724 6.88357 116.166 6.52917 115.553 6.29619C114.941 6.06321 114.287 5.95648 113.632 5.98247C112.733 5.98012 111.85 6.21791 111.075 6.67112C110.463 7.02001 109.943 7.50962 109.559 8.09923V1.32165C109.559 1.2847 109.544 1.24924 109.518 1.22301C109.492 1.19678 109.457 1.18191 109.419 1.18164H106.751C106.714 1.18191 106.679 1.19678 106.653 1.22301C106.627 1.24924 106.612 1.2847 106.612 1.32165V19.0243C106.612 19.0426 106.615 19.0609 106.622 19.0779C106.629 19.095 106.639 19.1105 106.652 19.1236C106.665 19.1367 106.681 19.1471 106.698 19.1543C106.715 19.1614 106.733 19.1652 106.751 19.1653H109.419C109.438 19.1652 109.456 19.1614 109.473 19.1543C109.49 19.1471 109.505 19.1367 109.518 19.1236C109.531 19.1105 109.541 19.095 109.548 19.0779C109.555 19.0609 109.559 19.0426 109.559 19.0243V12.144C109.526 11.6689 109.596 11.1924 109.765 10.7469C109.934 10.3014 110.197 9.89745 110.536 9.56261C111.165 8.98462 111.992 8.66817 112.848 8.67795C114.709 8.67795 115.612 9.78144 115.612 12.0496V19.0253C115.612 19.0438 115.616 19.0621 115.623 19.0792C115.63 19.0963 115.64 19.1119 115.653 19.125C115.666 19.1381 115.681 19.1485 115.699 19.1556C115.716 19.1627 115.734 19.1663 115.753 19.1663H118.419C118.438 19.1663 118.456 19.1627 118.473 19.1556C118.491 19.1485 118.506 19.1381 118.519 19.125C118.532 19.1119 118.543 19.0963 118.549 19.0792C118.556 19.0621 118.56 19.0438 118.56 19.0253V11.2365C118.606 10.5287 118.509 9.81873 118.275 9.14899C118.04 8.47924 117.673 7.86336 117.196 7.33799Z" fill="white"/>
</mask>
<g mask="url(#mask11_6788_714)">
<mask id="mask12_6788_714" style="mask-type:luminance" maskUnits="userSpaceOnUse" x="106" y="1" width="13" height="19">
<path d="M118.628 1.15259H106.593V19.2503H118.628V1.15259Z" fill="white"/>
</mask>
<g mask="url(#mask12_6788_714)">
<path d="M119.471 0.271973H105.698V20.0747H119.471V0.271973Z" fill="black"/>
</g>
</g>
</g>
</g>
</g>
<mask id="mask13_6788_714" style="mask-type:luminance" maskUnits="userSpaceOnUse" x="0" y="5" width="14" height="20">
<path d="M13.3088 5.91699H0.557373V24.0044H13.3088V5.91699Z" fill="white"/>
</mask>
<g mask="url(#mask13_6788_714)">
<mask id="mask14_6788_714" style="mask-type:luminance" maskUnits="userSpaceOnUse" x="-34" y="-43" width="188" height="110">
<path d="M153.182 -42.5913H-33.5413V66.5407H153.182V-42.5913Z" fill="white"/>
</mask>
<g mask="url(#mask14_6788_714)">
<mask id="mask15_6788_714" style="mask-type:luminance" maskUnits="userSpaceOnUse" x="0" y="5" width="14" height="20">
<path d="M13.3213 5.88159H0.557373V24.0706H13.3213V5.88159Z" fill="white"/>
</mask>
<g mask="url(#mask15_6788_714)">
<mask id="mask16_6788_714" style="mask-type:luminance" maskUnits="userSpaceOnUse" x="0" y="5" width="14" height="20">
<path d="M6.87906 16.8544C6.08174 16.8656 5.2964 16.6602 4.6072 16.2601C3.94475 15.8683 3.40055 15.3054 3.03199 14.6308C2.64311 13.9105 2.44552 13.1029 2.45804 12.2849C2.4461 11.457 2.64349 10.6394 3.03199 9.90777C3.39811 9.23047 3.94373 8.6665 4.60928 8.27742C5.30641 7.89205 6.09035 7.68986 6.88737 7.68986C7.6844 7.68986 8.46833 7.89205 9.16546 8.27742C9.82718 8.66567 10.3673 9.23026 10.7251 9.90777C11.1081 10.641 11.3011 11.4582 11.2865 12.2849C11.3011 13.0999 11.108 13.9054 10.7251 14.6256C10.3664 15.3041 9.82666 15.8705 9.16546 16.2622C8.47133 16.6641 7.68048 16.8695 6.87801 16.8565M13.2652 5.99057H11.3333C11.3218 5.99083 11.3109 5.9955 11.3028 6.00362C11.2946 6.01173 11.2899 6.02266 11.2897 6.03413V8.52322C10.8387 7.73387 10.1838 7.07955 9.39317 6.6284C8.50151 6.14247 7.4977 5.89823 6.48187 5.92004C5.3995 5.90731 4.33397 6.18798 3.39902 6.73211C2.50778 7.26951 1.78329 8.04278 1.30601 8.96606C0.795388 9.97158 0.538755 11.0863 0.558424 12.2133C0.540953 13.3553 0.801402 14.4845 1.31744 15.5041C1.79878 16.4421 2.5344 17.2265 3.44061 17.7681C4.38029 18.3164 5.45265 18.5972 6.54114 18.5802C7.54971 18.6003 8.54596 18.3565 9.4306 17.8729C10.2138 17.427 10.8577 16.7733 11.2907 15.9843V17.7868C11.3171 18.3826 11.2175 18.9774 10.9984 19.5324C10.7794 20.0873 10.4457 20.5901 10.0191 21.0081C9.09537 21.8374 7.88144 22.2707 6.63991 22.2142C5.84906 22.2069 5.06552 22.0623 4.32439 21.7869C3.58185 21.4935 2.89268 21.0805 2.28441 20.5642C2.27982 20.5601 2.27432 20.5571 2.26836 20.5554C2.2624 20.5538 2.25615 20.5536 2.2501 20.5548C2.24377 20.5556 2.23771 20.5579 2.23246 20.5615C2.22721 20.5651 2.22292 20.57 2.21994 20.5756L1.33824 22.0649C1.33298 22.0742 1.33125 22.0851 1.33335 22.0955C1.33545 22.106 1.34124 22.1154 1.34967 22.1219C2.87925 23.324 4.76449 23.9877 6.71165 24.0095C7.90745 24.0336 9.0917 23.7722 10.1657 23.2472C11.1348 22.7596 11.9403 22.0005 12.4833 21.063C13.052 20.0486 13.3392 18.9011 13.3151 17.7391V6.03309C13.3152 6.02742 13.3142 6.02178 13.3122 6.0165C13.3101 6.01122 13.307 6.00641 13.303 6.00235C13.299 5.99829 13.2943 5.99507 13.289 5.99286C13.2838 5.99066 13.2782 5.98953 13.2725 5.98953" fill="white"/>
</mask>
<g mask="url(#mask16_6788_714)">
<mask id="mask17_6788_714" style="mask-type:luminance" maskUnits="userSpaceOnUse" x="0" y="5" width="14" height="20">
<path d="M13.3213 5.88159H0.557373V24.0706H13.3213V5.88159Z" fill="white"/>
</mask>
<g mask="url(#mask17_6788_714)">
<path d="M14.2207 5.00732H-0.354492V24.9138H14.2207V5.00732Z" fill="black"/>
</g>
</g>
</g>
</g>
</g>
<mask id="mask18_6788_714" style="mask-type:luminance" maskUnits="userSpaceOnUse" x="15" y="5" width="14" height="15">
<path d="M17.8078 11.7467C17.911 10.6297 18.4246 9.59024 19.2499 8.82822C20.0983 8.07931 21.2014 7.68165 22.3338 7.71643C22.8542 7.712 23.3723 7.78613 23.8705 7.9363C24.439 8.10888 24.9602 8.40942 25.3938 8.81474C26.1859 9.58842 26.6408 10.642 26.6602 11.7477H17.8098L17.8078 11.7467ZM28.4943 12.4467C28.5215 10.8352 28.0206 9.2588 27.0678 7.95704C27.0075 7.87926 26.9419 7.80563 26.8775 7.73199C25.9277 6.6992 24.6111 6.07732 23.2082 5.99896C22.9452 5.97303 22.6686 5.96059 22.3847 5.96059C21.1946 5.94167 20.0198 6.23112 18.9754 6.80065C17.9865 7.34756 17.1743 8.16419 16.6339 9.15491C16.0624 10.2233 15.7736 11.4195 15.7948 12.6303C15.7736 13.8401 16.0575 15.0359 16.6204 16.1078C17.1505 17.1005 17.9552 17.9206 18.939 18.4703C19.9858 19.0436 21.1647 19.3339 22.3587 19.3125C23.3828 19.3234 24.3984 19.1265 25.3439 18.7338C26.0174 18.4544 26.6388 18.0638 27.1821 17.5784L26.6155 15.919L26.5916 15.8952C26.5874 15.8911 26.5826 15.888 26.5772 15.8858C26.5719 15.8837 26.5661 15.8826 26.5604 15.8827C26.5484 15.8825 26.5368 15.887 26.5281 15.8952C26.0184 16.4151 25.4078 16.8259 24.7335 17.1024C24.0255 17.3892 23.2674 17.533 22.5033 17.5255C21.3416 17.576 20.2052 17.1776 19.3306 16.4134C18.456 15.6492 17.9105 14.5779 17.8078 13.4227H28.4382C28.4438 13.4231 28.4494 13.4224 28.4548 13.4205C28.4601 13.4187 28.465 13.4158 28.4692 13.412C28.4734 13.4082 28.4768 13.4036 28.4791 13.3985C28.4815 13.3934 28.4827 13.3879 28.4829 13.3822C28.4974 13.0607 28.5016 12.7475 28.4933 12.4405L28.4943 12.4467Z" fill="white"/>
</mask>
<g mask="url(#mask18_6788_714)">
<mask id="mask19_6788_714" style="mask-type:luminance" maskUnits="userSpaceOnUse" x="-34" y="-43" width="188" height="110">
<path d="M153.181 -42.5911H-33.5422V66.5409H153.181V-42.5911Z" fill="white"/>
</mask>
<g mask="url(#mask19_6788_714)">
<path d="M29.4094 5.05225H14.8821V20.2243H29.4094V5.05225Z" fill="black"/>
</g>
</g>
<mask id="mask20_6788_714" style="mask-type:luminance" maskUnits="userSpaceOnUse" x="30" y="2" width="9" height="18">
<path d="M38.5819 18.2608L38.0381 16.6875C38.0353 16.6815 38.0312 16.6761 38.0262 16.6716C38.0212 16.6672 38.0154 16.6638 38.009 16.6616C38.003 16.6594 37.9965 16.6587 37.9902 16.6596C37.9838 16.6605 37.9778 16.663 37.9726 16.6668C37.3632 17.0841 36.6465 17.3181 35.9077 17.3409C35.6707 17.358 35.433 17.3218 35.212 17.2349C34.991 17.148 34.7924 17.0127 34.6309 16.839C34.3035 16.3504 34.1531 15.765 34.2046 15.1796V7.93216H38.2222L37.7709 6.30596H34.2046V2.98717C34.2041 2.97579 34.1993 2.965 34.1912 2.95694C34.1831 2.94888 34.1723 2.94412 34.1609 2.94362H32.2436C32.2378 2.94348 32.232 2.9445 32.2266 2.94663C32.2212 2.94875 32.2162 2.95194 32.212 2.956C32.2079 2.96006 32.2046 2.96491 32.2023 2.97026C32.2001 2.97562 32.1989 2.98137 32.1989 2.98717V6.30596H30.3606C30.3548 6.30582 30.349 6.30684 30.3436 6.30897C30.3382 6.3111 30.3333 6.31428 30.3291 6.31834C30.3249 6.3224 30.3216 6.32725 30.3193 6.33261C30.3171 6.33796 30.3159 6.34371 30.3159 6.34952V7.92076C30.3164 7.93232 30.3214 7.94325 30.3297 7.95134C30.338 7.95943 30.349 7.96406 30.3606 7.96431H32.1989V15.5353C32.1209 16.5662 32.4521 17.5864 33.1212 18.376C33.4439 18.6932 33.8287 18.9408 34.2516 19.1031C34.6745 19.2655 35.1264 19.3392 35.5791 19.3197C36.6528 19.2897 37.6927 18.9389 38.5643 18.3127C38.5721 18.3076 38.5779 18.3 38.5808 18.2911C38.5836 18.2822 38.5833 18.2726 38.5798 18.264" fill="white"/>
</mask>
<g mask="url(#mask20_6788_714)">
<mask id="mask21_6788_714" style="mask-type:luminance" maskUnits="userSpaceOnUse" x="-34" y="-43" width="188" height="110">
<path d="M153.181 -42.5911H-33.5422V66.5409H153.181V-42.5911Z" fill="white"/>
</mask>
<g mask="url(#mask21_6788_714)">
<path d="M39.496 2.03516H29.4021V20.2273H39.496V2.03516Z" fill="black"/>
</g>
</g>
<mask id="mask22_6788_714" style="mask-type:luminance" maskUnits="userSpaceOnUse" x="38" y="0" width="12" height="22">
<path d="M49.0159 0.00439453H38.8118V21.5806H49.0159V0.00439453Z" fill="white"/>
</mask>
<g mask="url(#mask22_6788_714)">
<mask id="mask23_6788_714" style="mask-type:luminance" maskUnits="userSpaceOnUse" x="-34" y="-43" width="188" height="110">
<path d="M153.181 -42.5911H-33.5422V66.5409H153.181V-42.5911Z" fill="white"/>
</mask>
<g mask="url(#mask23_6788_714)">
<mask id="mask24_6788_714" style="mask-type:luminance" maskUnits="userSpaceOnUse" x="38" y="-1" width="12" height="23">
<path d="M49.0617 -0.0297852H38.7588V21.6149H49.0617V-0.0297852Z" fill="white"/>
</mask>
<g mask="url(#mask24_6788_714)">
<mask id="mask25_6788_714" style="mask-type:luminance" maskUnits="userSpaceOnUse" x="38" y="0" width="12" height="22">
<path d="M41.7741 0.0894533C41.7661 0.0648221 41.7506 0.0433227 41.7297 0.0280437C41.7088 0.0127646 41.6835 0.00449082 41.6576 0.00440872H38.9366C38.9162 0.00410232 38.8961 0.00876182 38.878 0.0179808C38.8599 0.0271998 38.8443 0.0406992 38.8326 0.0573025C38.8211 0.0730979 38.8136 0.0914339 38.8107 0.110754C38.8078 0.130074 38.8096 0.149808 38.816 0.168275L46.0526 21.4967C46.0605 21.5213 46.0761 21.5428 46.097 21.5581C46.1179 21.5733 46.1431 21.5816 46.1691 21.5817H48.8901C48.9103 21.5821 48.9304 21.5776 48.9485 21.5686C48.9666 21.5595 48.9823 21.5462 48.9941 21.5298C49.0055 21.5138 49.0129 21.4952 49.0156 21.4757C49.0183 21.4562 49.0163 21.4364 49.0097 21.4178L41.7741 0.0894533Z" fill="white"/>
</mask>
<g mask="url(#mask25_6788_714)">
<mask id="mask26_6788_714" style="mask-type:luminance" maskUnits="userSpaceOnUse" x="38" y="-1" width="12" height="23">
<path d="M49.0617 -0.0297852H38.7588V21.6149H49.0617V-0.0297852Z" fill="white"/>
</mask>
<g mask="url(#mask26_6788_714)">
<path d="M49.9277 -0.905029H37.8999V22.4903H49.9277V-0.905029Z" fill="black"/>
</g>
</g>
</g>
</g>
</g>
</g>
<defs>
<clipPath id="clip0_6788_714">
<rect width="118" height="24" fill="white" transform="translate(0.557373 0.00439453)"/>
</clipPath>
</defs>
</svg>
