<svg width="167" height="22" viewBox="0 0 167 22" fill="none" xmlns="http://www.w3.org/2000/svg">
<path fill-rule="evenodd" clip-rule="evenodd" d="M144.231 12.6552H148.818C149.187 10.9671 149.243 10.2567 148.962 9.92666C148.812 9.75191 148.502 9.65918 147.79 9.65918H146.606C145.788 9.65918 145.399 9.79093 145.143 10.0441C144.931 10.254 144.68 10.9143 144.231 12.6552ZM142.293 21.307C140.842 21.307 140.024 21.0698 139.418 20.4631C138.257 19.3023 138.125 17.3768 139.048 13.6048C139.945 9.91196 140.71 8.6986 141.554 7.85452C142.583 6.8258 143.506 6.53564 145.168 6.53564H150.073C151.524 6.53564 152.342 6.77304 152.948 7.37972C154.109 8.54033 154.03 10.3076 153.08 14.0796C152.922 14.7127 152.737 14.8973 152.025 14.8973H143.678C143.229 16.7966 143.214 17.5122 143.391 17.8111C143.505 18.0041 143.715 18.1927 144.427 18.1927H145.585C146.692 18.1927 146.972 18.1927 147.262 17.9025C147.447 17.7179 147.789 16.8229 147.974 16.0843H152.579C151.946 18.3793 151.445 19.3552 150.812 19.9882C149.783 21.017 148.86 21.307 147.198 21.307H142.293Z" fill="#1B1F23"/>
<path fill-rule="evenodd" clip-rule="evenodd" d="M30.7291 12.3101H37.3385L36.474 15.792H29.8594L30.7291 12.3101Z" fill="black"/>
<path fill-rule="evenodd" clip-rule="evenodd" d="M60.4701 6.53564L56.8361 21.3072H51.5083L51.986 19.3962C50.098 20.8491 49.0554 21.3335 47.5521 21.3335H46.708C45.5739 21.3335 44.809 21.1225 44.2288 20.5422C43.4111 19.7245 43.5166 18.1419 44.0178 16.1108L46.4179 6.53564H51.7456L49.2193 16.7145C49.061 17.3475 49.0874 17.7696 49.2984 17.9806C49.4566 18.1388 49.6413 18.1916 49.9314 18.1916H50.3798C50.8809 18.1916 51.4084 18.0333 52.4106 17.5849L55.1481 6.53564H60.4701Z" fill="black"/>
<path fill-rule="evenodd" clip-rule="evenodd" d="M78.3441 18.1835C78.8544 18.1835 79.1827 18.168 79.4886 17.862C79.7323 17.6182 80.0126 16.9091 80.7235 14.0061C81.551 10.6236 81.4234 10.1613 81.1703 9.90825C80.9448 9.68281 80.6338 9.65918 79.9777 9.65918H79.0127C78.5023 9.65918 78.1741 9.6747 77.8682 9.98065C77.6711 10.1778 77.4131 10.6379 76.6298 13.8367C75.803 17.2165 75.9319 17.6798 76.1864 17.9344C76.4118 18.1599 76.723 18.1835 77.3791 18.1835H78.3441ZM83.1998 19.9883C82.1713 21.017 81.2481 21.307 79.5866 21.307H74.8917C73.4411 21.307 72.6234 21.0698 72.0168 20.4631C70.8563 19.3025 70.7245 17.3768 71.6476 13.6048C72.5443 9.91196 73.3092 8.6986 74.1532 7.85452C75.1818 6.8258 76.1049 6.53564 77.7667 6.53564H82.4613C83.9121 6.53564 84.7297 6.77304 85.3363 7.37972C86.4968 8.54033 86.6287 10.4659 85.7056 14.2379C84.8087 17.9308 84.044 19.1442 83.1998 19.9883Z" fill="black"/>
<path fill-rule="evenodd" clip-rule="evenodd" d="M95.9183 4.86886L91.8395 21.307H86.1687L90.2477 4.86886H84.9199L86.0013 0.569336H102.459L101.378 4.86886H95.9183Z" fill="#1B1F23"/>
<path fill-rule="evenodd" clip-rule="evenodd" d="M94.6077 21.3069L98.2736 6.5354H103.602L103.074 8.67211C104.868 7.19497 105.791 6.5354 106.925 6.5354H108.349L107.256 11.0027H105.753C104.592 11.0027 103.695 11.1346 102.324 11.662L99.9618 21.3069H94.6077Z" fill="#1B1F23"/>
<path fill-rule="evenodd" clip-rule="evenodd" d="M152.816 21.3069L156.482 6.5354H161.81L161.282 8.67211C163.076 7.19497 163.999 6.5354 165.133 6.5354H166.557L165.464 11.0027H163.961C162.8 11.0027 161.903 11.1346 160.532 11.662L158.17 21.3069H152.816Z" fill="#1B1F23"/>
<path fill-rule="evenodd" clip-rule="evenodd" d="M115.365 17.5291L116.058 14.8652H114.082C112.495 14.8652 112.074 14.9621 111.653 15.3834C111.361 15.6749 111.189 16.0701 111.06 16.5561C110.93 17.0741 110.871 17.8836 111.13 18.1103C111.357 18.3371 111.745 18.4342 112.264 18.4342H112.895C113.445 18.4342 114.16 18.264 115.365 17.5291ZM114.441 21.307L114.844 19.6624C112.987 20.9274 112.278 21.3334 111.012 21.3334H109.144C107.641 21.3334 107.069 21.0569 106.568 20.5557C105.908 19.8962 105.779 18.3692 106.227 16.6019C106.675 14.8083 107.107 14.0235 107.767 13.3641C108.716 12.4145 110.289 12.2299 112.293 12.2299C113.902 12.2299 115.371 12.6316 116.526 12.9737L116.916 11.4184C117.206 10.2578 117.233 10.0204 117.048 9.83571C116.916 9.70383 116.705 9.65107 116.257 9.65107H114.6C114.151 9.65107 113.861 9.67745 113.65 9.88847C113.465 10.0731 113.328 10.3433 113.143 11.0028H108.485C109.145 8.39141 109.498 8.14467 110.052 7.59074C110.869 6.77304 111.872 6.53564 113.296 6.53564H117.931C122.753 6.53564 122.659 9.07942 121.968 11.9459L119.637 21.307H114.441Z" fill="#1B1F23"/>
<path fill-rule="evenodd" clip-rule="evenodd" d="M131.198 17.3594L132.983 10.1615C132.342 9.809 132.03 9.64868 131.165 9.64868H130.863C130.126 9.64868 129.613 9.74485 129.229 10.1295C128.844 10.5141 128.47 11.206 127.829 14.0264C127.188 16.8467 127.156 17.4556 127.572 17.8723C127.765 18.0645 128.021 18.1926 128.758 18.1926H128.9C129.829 18.1926 130.306 17.8735 131.198 17.3594ZM130.134 6.50921C131.136 6.50921 131.769 6.82574 133.457 8.32926L135.386 0.569336H140.74L135.567 21.307H130.213L130.688 19.3816C128.472 20.9378 127.839 21.3335 126.336 21.3335H125.677C124.358 21.3335 123.698 21.0697 123.118 20.4894C122.116 19.4871 122.089 17.6141 123.065 13.684C123.936 10.1229 124.701 8.88318 125.703 7.88084C126.784 6.79936 128.077 6.50921 129.527 6.50921H130.134Z" fill="#1B1F23"/>
<path fill-rule="evenodd" clip-rule="evenodd" d="M66.1918 16.5298C65.9808 17.3475 65.9543 17.7432 66.1655 17.9542C66.3237 18.1124 66.5083 18.1916 67.4313 18.1916H69.225L68.577 20.7532L67.2848 21.0432C66.3353 21.2808 65.0956 21.439 63.9877 21.439C62.4316 21.439 61.6404 21.0961 61.0865 20.5422C60.3744 19.8299 60.3218 18.6956 60.8227 16.6646L62.546 9.65104H61.0063L61.7624 6.53548H63.3284L63.7174 4.97935L65.4635 3.64042C66.1383 3.12317 66.9647 2.84277 67.8149 2.84277H67.8708H69.6058L68.6826 6.53548H72.0322L71.2762 9.65104H67.9002L66.1918 16.5298Z" fill="black"/>
<path fill-rule="evenodd" clip-rule="evenodd" d="M36.5586 21.3069L35.9769 5.72719H35.2807L27.1089 21.3069H20.9688L31.8515 2.41572C32.4505 1.41942 33.4105 0.598145 34.2862 0.598145H38.9688C40.6523 0.598145 40.7743 0.867552 40.953 2.98242L42.4175 21.3069H36.5586Z" fill="black"/>
<path fill-rule="evenodd" clip-rule="evenodd" d="M10.1696 6.53564C9.27597 6.53564 8.29652 7.37368 7.68523 8.39031L5.14307 12.8032H21.0499C21.9435 12.8032 22.923 11.9651 23.5343 10.9486L26.0764 6.53564H10.1696Z" fill="black"/>
<path fill-rule="evenodd" clip-rule="evenodd" d="M5.28162 15.0393C4.38803 15.0393 3.40859 15.8773 2.79729 16.894L0.255127 21.307H16.162C17.0556 21.307 18.035 20.4688 18.6463 19.4523L21.1885 15.0393H5.28162Z" fill="black"/>
</svg>
