<svg width="26" height="26" viewBox="0 0 26 26" fill="none" xmlns="http://www.w3.org/2000/svg">
<path d="M17.7607 8.80811L10.7026 15.8662L7.61426 12.7791C7.61128 12.7761 7.60831 12.7731 7.60526 12.7701C7.35875 12.5286 6.96309 12.5325 6.72154 12.7791C6.47992 13.0256 6.48396 13.4213 6.73047 13.6628L10.2607 17.1919C10.3778 17.3093 10.5368 17.3752 10.7026 17.375C10.8684 17.3752 11.0274 17.3093 11.1445 17.1919L18.6445 9.69189C18.6474 9.68892 18.6504 9.68602 18.6534 9.68297C18.8949 9.43646 18.891 9.0408 18.6445 8.79926C18.3979 8.55763 18.0023 8.56168 17.7607 8.80811ZM13 0.5C6.09647 0.5 0.5 6.09647 0.5 13C0.5 19.9035 6.09647 25.5 13 25.5C19.9002 25.4919 25.4919 19.9002 25.5 13C25.5 6.09647 19.9035 0.5 13 0.5ZM13 24.25C6.78677 24.25 1.75 19.2132 1.75 13C1.75 6.78677 6.78677 1.75 13 1.75C19.2104 1.75679 24.2432 6.7896 24.25 13C24.25 19.2132 19.2132 24.25 13 24.25Z" fill="#81EC72"/>
</svg>
