<svg width="20" height="20" viewBox="0 0 20 20" fill="none" xmlns="http://www.w3.org/2000/svg">
<rect width="20" height="20" rx="10" fill="#FF6B1A"/>
<path d="M13.1739 7.20549L8.46851 11.9109L6.40959 9.85278C6.4076 9.8508 6.40562 9.84882 6.40359 9.84683C6.23925 9.6858 5.97547 9.68845 5.81444 9.85278C5.65336 10.0172 5.65606 10.2809 5.82039 10.442L8.17391 12.7947C8.25193 12.873 8.35798 12.9169 8.46851 12.9167C8.57903 12.9169 8.68503 12.873 8.76305 12.7947L13.7631 7.79468C13.765 7.79269 13.767 7.79076 13.769 7.78873C13.93 7.62439 13.9274 7.36062 13.7631 7.19959C13.5987 7.0385 13.3349 7.0412 13.1739 7.20549ZM10.0001 1.66675C5.39773 1.66675 1.66675 5.39773 1.66675 10.0001C1.66675 14.6024 5.39773 18.3334 10.0001 18.3334C14.6002 18.328 18.328 14.6002 18.3334 10.0001C18.3334 5.39773 14.6024 1.66675 10.0001 1.66675ZM10.0001 17.5001C5.85793 17.5001 2.50008 14.1422 2.50008 10.0001C2.50008 5.85793 5.85793 2.50008 10.0001 2.50008C14.1404 2.50461 17.4956 5.85981 17.5001 10.0001C17.5001 14.1422 14.1422 17.5001 10.0001 17.5001Z" fill="white"/>
</svg>
