<svg width="24" height="20" viewBox="0 0 24 20" fill="none" xmlns="http://www.w3.org/2000/svg">
<path d="M22.9376 9.15312L20.8542 6.375C20.3611 5.72078 19.5901 5.3353 18.7709 5.33333H16.1667V2.72917C16.1654 1.29147 15.0003 0.126335 13.5626 0.125H3.14591C1.70822 0.126335 0.543083 1.29147 0.541748 2.72917V16.2714C0.541939 16.5589 0.77508 16.7919 1.06258 16.7917H2.62508C2.62508 18.5176 4.02419 19.9167 5.75008 19.9167C7.47522 19.9148 8.87317 18.5168 8.87508 16.7917H15.1251C15.1251 18.5176 16.5242 19.9167 18.2501 19.9167C19.9752 19.9148 21.3732 18.5168 21.3751 16.7917H22.9382C23.2257 16.7915 23.4586 16.5583 23.4584 16.2708V10.7156C23.4575 10.1523 23.2748 9.60433 22.9376 9.15312ZM5.75008 18.875C4.59951 18.875 3.66675 17.9422 3.66675 16.7917C3.66675 15.6411 4.59951 14.7083 5.75008 14.7083C6.90009 14.7098 7.83195 15.6417 7.83342 16.7917C7.83342 17.9422 6.90066 18.875 5.75008 18.875ZM15.1251 15.75H8.68371C8.25322 14.539 7.10875 13.6667 5.75008 13.6667C4.39141 13.6667 3.24694 14.539 2.81645 15.75H1.58341V2.72917C1.58437 1.8666 2.28335 1.16762 3.14591 1.16667H13.5626C14.4251 1.16762 15.1241 1.8666 15.1251 2.72917V15.75ZM16.1667 6.375H18.7709C19.2621 6.37621 19.7244 6.60731 20.0201 6.99959L22.1045 9.77873C22.2711 10.0016 22.3567 10.2673 22.3884 10.5417H16.1667V6.375ZM18.2501 18.875C17.0995 18.875 16.1667 17.9422 16.1667 16.7917C16.1667 15.6411 17.0995 14.7083 18.2501 14.7083C19.4001 14.7098 20.332 15.6417 20.3334 16.7917C20.3334 17.9422 19.4007 18.875 18.2501 18.875ZM22.4167 15.75H21.1837C20.7532 14.539 19.6088 13.6667 18.2501 13.6667C17.4461 13.6667 16.7205 13.9788 16.1667 14.4777V11.5833H22.4167V15.75Z" fill="#FF6B1A"/>
</svg>
