<svg width="15" height="26" viewBox="0 0 15 26" fill="none" xmlns="http://www.w3.org/2000/svg">
<path d="M14.375 9.25122C14.72 9.25107 15.0002 8.97122 15 8.62622V8.00252C15.0005 7.87602 14.9622 7.75243 14.8901 7.64844C14.4318 5.66228 12.6646 4.25435 10.6262 4.25122L8.125 4.25023V1.125C8.125 0.779846 7.84516 0.5 7.5 0.5C7.15485 0.5 6.875 0.779846 6.875 1.125V4.25H4.375C1.95999 4.2529 0.00290093 6.20999 1.80906e-06 8.625V9.25122C0.00320618 11.6657 1.95931 13.6223 4.37378 13.6262L6.875 13.6273V20.5037H4.37378C2.64931 20.5008 1.25229 19.1032 1.25 17.3787C1.25 17.0336 0.970156 16.7537 0.625002 16.7537C0.279848 16.7537 1.80906e-06 17.0336 1.80906e-06 17.3787V18.0025C-0.000303316 18.1293 0.0379962 18.2531 0.109865 18.3577C0.569612 20.3428 2.33612 21.7497 4.37378 21.7537H6.875V24.8757C6.87523 25.2207 7.155 25.5002 7.5 25.5C7.84493 25.4998 8.12523 25.22 8.125 24.875V21.7537H10.625C13.04 21.7508 14.997 19.7937 15 17.3787V16.7525C14.9969 14.338 13.0407 12.3813 10.6262 12.3774H8.125V5.50023L10.6262 5.50122C12.3511 5.50336 13.7486 6.90144 13.75 8.62622C13.7502 8.97115 14.03 9.25145 14.375 9.25122ZM6.875 12.3773L4.37378 12.3762C2.64931 12.3732 1.25229 10.9757 1.25 9.25122V8.625C1.2516 6.89977 2.64977 5.5016 4.375 5.5H6.875V12.3773ZM10.6262 13.6274C12.3507 13.6304 13.7477 15.028 13.75 16.7524V17.3787C13.7484 19.1039 12.3502 20.5021 10.625 20.5037H8.125V13.6274H10.6262Z" fill="black"/>
</svg>
