<svg width="22" height="21" viewBox="0 0 22 21" fill="none" xmlns="http://www.w3.org/2000/svg">
<path d="M18.8124 0.083252H3.18742C1.74972 0.0845871 0.584587 1.24972 0.583252 2.68742V4.90401C0.584269 5.62798 0.88563 6.31901 1.41536 6.81244L7.87492 12.8101V20.3958C7.87492 20.6834 8.10812 20.9166 8.39575 20.9166C8.462 20.9167 8.52768 20.9039 8.58903 20.8789L13.7974 18.7956C13.9953 18.717 14.1252 18.5254 14.1249 18.3124V12.8101L20.5855 6.81231C21.1146 6.31857 21.4154 5.62772 21.4166 4.90401V2.68742C21.4152 1.24972 20.2501 0.0845871 18.8124 0.083252ZM13.2501 12.2018C13.1437 12.3001 13.0832 12.4384 13.0833 12.5833V17.9594L8.91658 19.6267V12.5833C8.91665 12.4384 8.85619 12.3001 8.74976 12.2018L2.43001 6.33325H19.5708L13.2501 12.2018ZM20.3749 4.90401C20.3747 5.03657 20.3524 5.16551 20.3199 5.29159H1.68004C1.64749 5.16551 1.62517 5.03657 1.62492 4.90401V2.68742C1.62587 1.82485 2.32485 1.12587 3.18742 1.12492H18.8124C19.675 1.12587 20.374 1.82485 20.3749 2.68742V4.90401Z" fill="#FF6B1A"/>
</svg>
