<svg width="24" height="15" viewBox="0 0 24 15" fill="none" xmlns="http://www.w3.org/2000/svg">
<path d="M18.2501 5.93742C17.3871 5.93742 16.6876 6.63697 16.6876 7.49992C16.6876 8.36287 17.3871 9.06242 18.2501 9.06242C19.1126 9.06146 19.8116 8.36249 19.8126 7.49992C19.8126 6.63697 19.113 5.93742 18.2501 5.93742ZM18.2501 8.02075C17.9625 8.02075 17.7292 7.78755 17.7292 7.49992C17.7292 7.21229 17.9625 6.97909 18.2501 6.97909C18.5375 6.97966 18.7703 7.21248 18.7709 7.49992C18.7709 7.78755 18.5377 8.02075 18.2501 8.02075ZM5.75008 5.93742C4.88713 5.93742 4.18758 6.63697 4.18758 7.49992C4.18758 8.36287 4.88713 9.06242 5.75008 9.06242C6.61265 9.06146 7.31163 8.36249 7.31258 7.49992C7.31258 6.63697 6.61303 5.93742 5.75008 5.93742ZM5.75008 8.02075C5.46245 8.02075 5.22925 7.78755 5.22925 7.49992C5.22925 7.21229 5.46245 6.97909 5.75008 6.97909C6.03752 6.97966 6.27034 7.21248 6.27092 7.49992C6.27092 7.78755 6.03771 8.02075 5.75008 8.02075ZM20.3334 0.208252H3.66675C1.94161 0.210159 0.543655 1.60812 0.541748 3.33325V11.6666C0.543655 13.3917 1.94161 14.7897 3.66675 14.7916H20.3334C22.0585 14.7897 23.4565 13.3917 23.4584 11.6666V3.33325C23.4565 1.60812 22.0585 0.210159 20.3334 0.208252ZM22.4167 11.6666C22.4153 12.8166 21.4834 13.7485 20.3334 13.7499H3.66675C2.51674 13.7485 1.58488 12.8166 1.58341 11.6666V3.33325C1.58488 2.18325 2.51674 1.25138 3.66675 1.24992H20.3334C21.4834 1.25138 22.4153 2.18325 22.4167 3.33325V11.6666ZM12.0001 4.89575C10.5618 4.89575 9.39592 6.06165 9.39592 7.49992C9.39592 8.93819 10.5618 10.1041 12.0001 10.1041C13.4378 10.1027 14.6029 8.93761 14.6042 7.49992C14.6042 6.06165 13.4384 4.89575 12.0001 4.89575ZM12.0001 9.06242C11.1371 9.06242 10.4376 8.36287 10.4376 7.49992C10.4376 6.63697 11.1371 5.93742 12.0001 5.93742C12.8626 5.93837 13.5616 6.63735 13.5626 7.49992C13.5626 8.36287 12.863 9.06242 12.0001 9.06242Z" fill="#FF6B1A"/>
</svg>
