<svg width="22" height="21" viewBox="0 0 22 21" fill="none" xmlns="http://www.w3.org/2000/svg">
<path d="M11.6042 19.8749H3.79175C2.64174 19.8735 1.70988 18.9416 1.70841 17.7916V3.20825C1.70988 2.05825 2.64174 1.12638 3.79175 1.12492H10.0417V4.93949C10.0435 6.28093 11.1305 7.36792 12.472 7.36964H16.2917V9.97908C16.2917 10.2667 16.525 10.4999 16.8126 10.4999C17.1002 10.4999 17.3334 10.2667 17.3334 9.97908V6.85409C17.3334 6.71593 17.2785 6.5835 17.1808 6.48584L10.9308 0.23584C10.8332 0.13812 10.7007 0.083252 10.5626 0.083252H3.79175C2.06661 0.0851593 0.668655 1.48312 0.666748 3.20825V17.7916C0.668655 19.5167 2.06661 20.9147 3.79175 20.9166H11.6042C11.8919 20.9166 12.1251 20.6834 12.1251 20.3958C12.1251 20.1081 11.8919 19.8749 11.6042 19.8749ZM11.0834 1.86135L15.55 6.32797H12.472C11.7053 6.3274 11.0841 5.70605 11.0834 4.93949V1.86135ZM21.3437 20.0239L19.7214 18.4015C20.7888 16.9738 20.6876 14.949 19.3903 13.6514C17.9474 12.275 15.6778 12.275 14.2349 13.6514C13.5509 14.3352 13.1667 15.2627 13.1667 16.2298C13.1669 18.2432 14.7992 19.8751 16.8126 19.8749C17.6032 19.8748 18.3595 19.6063 18.9856 19.1387L20.6073 20.7604C20.6097 20.7629 20.6121 20.7653 20.6146 20.7677C20.82 20.969 21.1498 20.9657 21.3511 20.7604C21.5524 20.555 21.5491 20.2252 21.3437 20.0239ZM18.6538 18.0703C17.6238 19.055 16.0014 19.055 14.9714 18.0703C14.4828 17.5819 14.2084 16.9194 14.2084 16.2286C14.2085 14.7904 15.3745 13.6248 16.8126 13.6249C17.5037 13.6228 18.1668 13.8975 18.6538 14.3879L18.6548 14.3888C19.6711 15.4057 19.6707 17.0539 18.6538 18.0703ZM5.35425 6.33325C5.06662 6.33325 4.83342 6.56646 4.83342 6.85409C4.83342 7.14171 5.06662 7.37492 5.35425 7.37492H7.43758C7.72521 7.37492 7.95842 7.14171 7.95842 6.85409C7.95842 6.56646 7.72521 6.33325 7.43758 6.33325H5.35425ZM12.6459 10.4999H5.35425C5.06662 10.4999 4.83342 10.7331 4.83342 11.0208C4.83342 11.3084 5.06662 11.5416 5.35425 11.5416H12.6459C12.9335 11.5416 13.1667 11.3084 13.1667 11.0208C13.1667 10.7331 12.9335 10.4999 12.6459 10.4999ZM10.5626 15.7083C10.8502 15.7083 11.0834 15.475 11.0834 15.1874C11.0834 14.8998 10.8502 14.6666 10.5626 14.6666H5.35425C5.06662 14.6666 4.83342 14.8998 4.83342 15.1874C4.83342 15.475 5.06662 15.7083 5.35425 15.7083H10.5626Z" fill="#FF6B1A"/>
</svg>
