<svg width="22" height="17" viewBox="0 0 22 17" fill="none" xmlns="http://www.w3.org/2000/svg">
<path d="M11 4.33342C8.69878 4.33342 6.83333 6.19887 6.83333 8.50008C6.83333 10.8013 8.69878 12.6667 11 12.6667C13.3003 12.6645 15.1644 10.8003 15.1667 8.50008C15.1667 6.19887 13.3012 4.33342 11 4.33342ZM11 11.6251C9.2741 11.6251 7.87499 10.226 7.87499 8.50008C7.87499 6.77419 9.2741 5.37508 11 5.37508C12.7251 5.37699 14.1231 6.77495 14.125 8.50008C14.125 10.226 12.7259 11.6251 11 11.6251ZM21.375 8.29663C19.2489 3.28158 15.2735 0.166748 11 0.166748C6.72651 0.166748 2.75109 3.28158 0.624969 8.29663C0.569021 8.42652 0.569021 8.57364 0.624969 8.70353C2.75109 13.7186 6.72651 16.8334 11 16.8334C15.2735 16.8334 19.249 13.7186 21.375 8.70353C21.431 8.57364 21.431 8.42652 21.375 8.29663ZM11 15.7917C7.20869 15.7917 3.65034 13.0035 1.67179 8.50008C3.65034 3.9967 7.20869 1.20841 11 1.20841C14.7913 1.20841 18.3496 3.9967 20.3282 8.50008C18.3496 13.0035 14.7913 15.7917 11 15.7917Z" fill="#FF6B1A"/>
</svg>
