<svg width="18" height="23" viewBox="0 0 18 23" fill="none" xmlns="http://www.w3.org/2000/svg">
<path d="M10.9755 9.36082L7.80169 12.5346L6.50368 11.2356C6.30125 11.0371 5.97719 11.0371 5.77469 11.2356C5.56927 11.4369 5.56596 11.7666 5.76725 11.972L7.43351 13.6393C7.53117 13.737 7.6636 13.7919 7.80176 13.7919C7.93985 13.7919 8.07228 13.737 8.16994 13.6393L11.7195 10.0898C11.9207 9.88439 11.9174 9.55461 11.712 9.35332C11.5066 9.15203 11.1769 9.15534 10.9755 9.36082ZM17.3224 2.90985C17.2635 2.6282 16.9874 2.44764 16.7058 2.50651C14.1336 3.04966 11.4515 2.50117 9.29915 0.991821C9.11974 0.865682 8.88043 0.865682 8.70101 0.991821C6.54869 2.50123 3.86652 3.04979 1.29439 2.50651C1.25942 2.4992 1.22382 2.49551 1.18809 2.49551C0.900335 2.49532 0.666939 2.7284 0.666748 3.01615V11.3688C0.668465 14.4274 2.14094 17.2986 4.62386 19.0847L8.69694 22.0052C8.78525 22.0688 8.8913 22.103 9.00008 22.1029C9.10886 22.103 9.21491 22.0688 9.30322 22.0053L13.3763 19.0847C15.8592 17.2986 17.3317 14.4274 17.3334 11.3688V3.01615C17.3334 2.98042 17.3297 2.94482 17.3224 2.90985ZM16.2917 11.3688C16.2906 14.0917 14.9801 16.6479 12.77 18.2383L9.00008 20.9412L5.23014 18.2383C3.02003 16.6478 1.70956 14.0917 1.70841 11.3688V3.63871C4.25193 4.01866 6.84643 3.45224 9.00008 2.04671C11.1539 3.45186 13.7483 4.01827 16.2917 3.63871V11.3688Z" fill="#FF6B1A"/>
</svg>
