<svg width="25" height="26" viewBox="0 0 25 26" fill="none" xmlns="http://www.w3.org/2000/svg">
<path d="M9.30306 4.81165C10.3272 4.43727 11.4096 4.24715 12.5001 4.25013C17.0484 4.25013 21.3197 7.59607 23.6951 13.0001C23.1144 14.3419 22.3707 15.6072 21.4808 16.7672C21.3953 16.8772 21.3491 17.0124 21.3493 17.1516C21.3499 17.4967 21.6301 17.7761 21.9752 17.7755C22.1685 17.7759 22.3511 17.6866 22.4696 17.5339C23.4785 16.2168 24.3127 14.7745 24.9513 13.243C25.0169 13.0873 25.0164 12.9115 24.9501 12.756C22.3976 6.73792 17.627 3.00013 12.5001 3.00013C11.2621 2.99677 10.0333 3.21337 8.87093 3.63977C8.54729 3.7591 8.38173 4.11814 8.50105 4.44178C8.62038 4.76542 8.97942 4.93097 9.30306 4.81165ZM13.7855 8.17102C13.4518 8.08268 13.1097 8.28165 13.0213 8.61536C12.933 8.94907 13.1319 9.29117 13.4657 9.37952C14.7652 9.72857 15.7782 10.7468 16.1207 12.048C16.1936 12.3219 16.4415 12.5127 16.7249 12.5131C16.7789 12.5133 16.8327 12.5064 16.8849 12.4923C17.2184 12.4037 17.4171 12.0618 17.3293 11.7282C16.8713 9.99277 15.5191 8.63558 13.7855 8.17102ZM1.0669 0.683308C0.82474 0.449314 0.440752 0.449314 0.198519 0.683308C-0.0497418 0.923099 -0.0566081 1.31876 0.183184 1.56702L4.74037 6.12421C2.69806 7.9542 1.07804 10.2088 0.0488302 12.7572C-0.0167063 12.913 -0.0162486 13.0888 0.0500509 13.2443C2.60254 19.2623 7.37313 23.0001 12.5001 23.0001C14.9602 22.9666 17.3366 22.1493 19.3044 20.6882L23.9332 25.317C24.0502 25.4344 24.2093 25.5004 24.3751 25.5001C24.5407 25.5 24.6996 25.4343 24.8167 25.3172C25.0609 25.0731 25.061 24.6774 24.8169 24.4333L1.0669 0.683308ZM9.45275 10.8366L14.6636 16.0475C14.0368 16.5 13.2837 16.7543 12.5001 16.7501C10.4299 16.7478 8.75237 15.0703 8.75008 13.0001C8.74588 12.2165 9.00025 11.4634 9.45275 10.8366ZM12.5001 21.7501C7.95174 21.7501 3.6805 18.4042 1.30623 13.0001C2.27013 10.6967 3.75755 8.65969 5.62195 7.00579L8.56957 9.9534C7.88788 10.8207 7.49504 11.8848 7.50008 13.0001C7.50282 15.7604 9.73976 17.9974 12.5001 18.0001C13.6155 18.0062 14.6799 17.6132 15.5469 16.9307L18.4128 19.7966C16.6892 21.0287 14.6297 21.7166 12.5001 21.7501Z" fill="black"/>
</svg>
