<svg width="25" height="26" viewBox="0 0 25 26" fill="none" xmlns="http://www.w3.org/2000/svg">
<path d="M24.8244 24.4408L19.622 19.2385C21.4034 17.2487 22.4969 14.6302 22.5 11.75C22.5 5.53677 17.4632 0.5 11.25 0.5C5.03677 0.5 0 5.53677 0 11.75C0 17.9632 5.03677 23 11.25 23C14.1302 22.9969 16.7486 21.9035 18.7383 20.1223L23.9406 25.3245C24.1828 25.5585 24.5668 25.5585 24.809 25.3245C25.0573 25.0847 25.0642 24.6891 24.8244 24.4408ZM11.25 21.75C5.72716 21.75 1.25 17.2728 1.25 11.75C1.25 6.22716 5.72716 1.75 11.25 1.75C16.7702 1.75633 21.2437 6.22975 21.25 11.75C21.25 17.2728 16.7728 21.75 11.25 21.75Z" fill="black"/>
</svg>
