<svg width="188" height="24" viewBox="0 0 188 24" fill="none" xmlns="http://www.w3.org/2000/svg">
<path d="M41.0276 0H44.3037C45.1791 0 45.9581 0.548763 46.252 1.37036L53.9921 23H50.6134C49.4923 23 48.4972 22.2854 48.1411 21.225L41.0276 0Z" fill="#00303C"/>
<path d="M38.7529 8.97567C37.6831 8.97567 36.716 9.61279 36.2961 10.5956L31.0002 23.0001H36.2728C37.4157 23.0001 38.4465 22.315 38.8866 21.2639L44.0301 8.98807L38.7529 8.97412V8.97567Z" fill="#00303C"/>
<path d="M68.2399 9.5645V22.66H64.431L64.1691 21.1933C63.3553 22.2675 61.726 23 60.1493 23C57.1542 23 55.3157 21.0093 55.3157 17.7884V9.5645H59.3619V16.3217C59.3619 18.4701 60.0966 19.4111 61.7523 19.4111C63.4081 19.4111 64.1955 18.5209 64.1955 16.3725V9.56274H68.2417L68.2399 9.5645Z" fill="#00303C"/>
<path d="M72.5462 22.6602V12.9169H70.0503V9.56465H72.5462V5.50439H76.5924V9.56465H79.0883V12.9169H76.5924V22.6602H72.5462Z" fill="#00303C"/>
<path d="M87.3108 9.17212C91.487 9.17212 94.5348 11.9479 94.5348 16.087C94.5348 20.2261 91.487 22.9756 87.3108 22.9756C83.1345 22.9756 80.0603 20.2261 80.0603 16.087C80.0603 11.9479 83.1081 9.17212 87.3108 9.17212ZM87.3108 19.3604C89.1757 19.3604 90.4623 18.0514 90.4623 16.0607C90.4623 14.07 89.1757 12.7873 87.3108 12.7873C85.4459 12.7873 84.1329 14.0963 84.1329 16.0607C84.1329 18.0251 85.4195 19.3604 87.3108 19.3604Z" fill="#00303C"/>
<path d="M99.7606 18.521C99.8133 19.4375 100.495 19.9877 101.731 19.9877C102.967 19.9877 103.569 19.5426 103.569 18.861C103.569 18.4684 103.359 18.0496 102.387 17.8393L99.9697 17.3154C97.5529 16.7914 96.3717 15.7435 96.3717 13.4391C96.3717 10.7159 98.7095 9.14404 101.863 9.14404C105.016 9.14404 107.037 10.9245 107.037 13.5705H103.202C103.202 12.6803 102.65 12.0775 101.678 12.0775C100.759 12.0775 100.181 12.5489 100.181 13.2569C100.181 13.8597 100.68 14.1996 101.599 14.4099L104.042 14.9339C106.197 15.4053 107.378 16.4006 107.378 18.4965C107.378 21.2985 104.988 23.0018 101.573 23.0018C98.1576 23.0018 95.9253 21.1688 95.9253 18.5228H99.7606V18.521Z" fill="#00303C"/>
<path d="M109.481 22.6601V9.56457H113.263L113.525 10.9262C114.182 10.0097 115.469 9.14575 117.36 9.14575C119.252 9.14575 120.591 10.0622 121.354 11.4501C122.037 10.0622 123.586 9.14575 125.477 9.14575C128.866 9.14575 130.548 11.1102 130.548 14.0962V22.6601H126.502V15.2212C126.502 13.5705 125.635 12.7854 124.347 12.7854C123.191 12.7854 122.036 13.4145 122.036 15.6401V22.6583H117.99V15.2195C117.99 13.595 117.149 12.81 115.861 12.81C114.704 12.81 113.523 13.4391 113.523 15.6383V22.6566H109.477L109.481 22.6601Z" fill="#00303C"/>
<path d="M133.121 5.21705C133.121 3.93431 134.146 2.93896 135.433 2.93896C136.719 2.93896 137.718 3.93431 137.718 5.21705C137.718 6.49979 136.693 7.52143 135.433 7.52143C134.172 7.52143 133.121 6.49979 133.121 5.21705ZM133.438 9.5647H137.484V22.6602H133.438V9.5647Z" fill="#00303C"/>
<path d="M141.79 22.6602V12.9169H139.294V9.56465H141.79V5.50439H145.837V9.56465H148.332V12.9169H145.837V22.6602H141.79Z" fill="#00303C"/>
<path d="M150.145 22.6601V2.9126H154.217V10.9262C155.031 9.79943 156.528 9.1458 158.237 9.1458C161.362 9.1458 163.176 11.1365 163.176 14.5676V22.6601H159.13V15.5367C159.13 13.886 158.211 12.8135 156.818 12.8135C155.215 12.8135 154.191 13.8614 154.191 15.4841V22.6601H150.145Z" fill="#00303C"/>
<path d="M166.168 20.6432C166.168 19.3342 167.245 18.26 168.585 18.26C169.924 18.26 171.001 19.3342 171.001 20.6432C171.001 21.9523 169.871 23.0002 168.585 23.0002C167.298 23.0002 166.168 21.926 166.168 20.6432Z" fill="#00303C"/>
<circle cx="11.5" cy="12.5" r="10" stroke="#00303C" stroke-width="3"/>
</svg>
