<svg width="20" height="21" viewBox="0 0 20 21" fill="none" xmlns="http://www.w3.org/2000/svg">
<path d="M16.7708 0.083252H3.22917C1.79147 0.0845871 0.626335 1.24972 0.625 2.68742V15.1874C0.626335 16.6251 1.79147 17.7902 3.22917 17.7916H6.65941L9.63175 20.764C9.72928 20.8618 9.86184 20.9168 10 20.9166C10.1382 20.9167 10.2707 20.8618 10.3682 20.764L13.3406 17.7916H16.7708C18.2085 17.7902 19.3737 16.6251 19.375 15.1874V2.68742C19.3737 1.24972 18.2085 0.0845871 16.7708 0.083252ZM18.3333 15.1874C18.3324 16.05 17.6334 16.749 16.7708 16.7499H13.125C12.9868 16.7499 12.8544 16.8048 12.7568 16.9025L10 19.6593L7.24325 16.9025C7.14559 16.8048 7.01316 16.7499 6.875 16.7499H3.22917C2.3666 16.749 1.66762 16.05 1.66667 15.1874V2.68742C1.66762 1.82485 2.3666 1.12587 3.22917 1.12492H16.7708C17.6334 1.12587 18.3324 1.82485 18.3333 2.68742V15.1874ZM11.9089 9.83107C12.643 9.25932 13.1239 8.37736 13.125 7.37492C13.125 5.64902 11.7259 4.24992 10 4.24992C8.2741 4.24992 6.875 5.64902 6.875 7.37492C6.875 8.38346 7.3608 9.27076 8.10238 9.84214C6.75274 10.3766 5.62588 11.4514 5.10905 12.9291L5.10867 12.9302C5.01241 13.2008 5.15381 13.4982 5.4244 13.5944C5.42929 13.5962 5.43419 13.598 5.43908 13.5997C5.70726 13.6908 5.99857 13.5473 6.08968 13.2791C6.50548 12.0847 7.44428 11.1459 8.6386 10.7301C10.7982 9.97826 13.1584 11.1195 13.9103 13.2791C13.9841 13.4866 14.1805 13.6251 14.4006 13.6249C14.4603 13.6252 14.5195 13.6149 14.5756 13.5944L14.5766 13.5941C14.847 13.4973 14.9878 13.1995 14.8909 12.9291C14.394 11.5082 13.3014 10.3841 11.9089 9.83107ZM10 9.45825C8.84942 9.45825 7.91667 8.52549 7.91667 7.37492C7.91667 6.22434 8.84942 5.29159 10 5.29159C11.15 5.29305 12.0819 6.22491 12.0833 7.37492C12.0833 8.52549 11.1506 9.45825 10 9.45825Z" fill="#FF6B1A"/>
</svg>
