<svg width="23" height="26" viewBox="0 0 23 26" fill="none" xmlns="http://www.w3.org/2000/svg">
<path d="M17.125 15.5H5.875C5.52985 15.5 5.25 15.7798 5.25 16.125C5.25 16.4702 5.52985 16.75 5.875 16.75H17.125C17.4702 16.75 17.75 16.4702 17.75 16.125C17.75 15.7798 17.4702 15.5 17.125 15.5ZM22.125 3H17.125V1.125C17.125 0.779846 16.8452 0.5 16.5 0.5C16.1548 0.5 15.875 0.779846 15.875 1.125V3H12.125V1.125C12.125 0.779846 11.8452 0.5 11.5 0.5C11.1548 0.5 10.875 0.779846 10.875 1.125V3H7.125V1.125C7.125 0.779846 6.84515 0.5 6.5 0.5C6.15485 0.5 5.875 0.779846 5.875 1.125V3H0.875C0.875305 3 0.874771 3 0.875 3C0.530075 3.00023 0.249771 3.28 0.25 3.625V22.375C0.251602 24.1002 1.64977 25.4984 3.375 25.5H19.625C21.3502 25.4984 22.7484 24.1002 22.75 22.375V3.625C22.75 3.62531 22.75 3.62477 22.75 3.625C22.7498 3.28008 22.47 2.99977 22.125 3ZM21.5 22.375C21.4989 23.4101 20.6601 24.2489 19.625 24.25H3.375C2.33992 24.2489 1.50114 23.4101 1.5 22.375V4.25H5.875V6.125C5.875 6.12469 5.875 6.12523 5.875 6.125C5.87523 6.46992 6.155 6.75023 6.5 6.75C6.49969 6.75 6.50023 6.75 6.5 6.75C6.84492 6.74977 7.12523 6.47 7.125 6.125V4.25H10.875V6.125C10.875 6.12469 10.875 6.12523 10.875 6.125C10.8752 6.46992 11.155 6.75023 11.5 6.75C11.4997 6.75 11.5002 6.75 11.5 6.75C11.8449 6.74977 12.1252 6.47 12.125 6.125V4.25H15.875V6.125C15.875 6.12469 15.875 6.12523 15.875 6.125C15.8752 6.46992 16.155 6.75023 16.5 6.75C16.4997 6.75 16.5002 6.75 16.5 6.75C16.8449 6.74977 17.1252 6.47 17.125 6.125V4.25H21.5V22.375ZM8.375 10.5C8.02985 10.5 7.75 10.7798 7.75 11.125C7.75 11.4702 8.02985 11.75 8.375 11.75H17.125C17.4702 11.75 17.75 11.4702 17.75 11.125C17.75 10.7798 17.4702 10.5 17.125 10.5H8.375Z" fill="black"/>
</svg>
