<svg width="26" height="26" viewBox="0 0 26 26" fill="none" xmlns="http://www.w3.org/2000/svg">
<path d="M8.84839 17.6362C8.58411 17.858 8.5497 18.2521 8.77148 18.5164C8.99327 18.7806 9.38733 18.815 9.65161 18.5933C11.6079 17.0234 14.3921 17.0234 16.3484 18.5933C16.4607 18.6881 16.603 18.7401 16.75 18.7397C16.9345 18.7396 17.1094 18.658 17.2281 18.5168C17.4501 18.2525 17.4159 17.8582 17.1516 17.6362C14.7267 15.688 11.2733 15.688 8.84839 17.6362ZM10.3926 10.9199C10.5583 10.9198 10.7172 10.8541 10.8344 10.737C11.0785 10.4929 11.0785 10.0972 10.8345 9.85303C9.59851 8.67146 7.65157 8.67146 6.41553 9.85303C6.17741 10.096 6.17741 10.4849 6.41553 10.7279C6.65715 10.9744 7.05281 10.9784 7.29932 10.7368C8.04517 10.0386 9.20483 10.0386 9.95068 10.7368C10.0677 10.8542 10.2268 10.9202 10.3926 10.9199ZM13 0.5C6.09647 0.5 0.5 6.09647 0.5 13C0.5 19.9035 6.09647 25.5 13 25.5C19.9002 25.4919 25.4919 19.9002 25.5 13C25.5 6.09647 19.9035 0.5 13 0.5ZM13 24.25C6.78677 24.25 1.75 19.2132 1.75 13C1.75 6.78677 6.78677 1.75 13 1.75C19.2104 1.75679 24.2432 6.7896 24.25 13C24.25 19.2132 19.2132 24.25 13 24.25ZM15.1655 9.85303C14.9274 10.096 14.9274 10.4849 15.1655 10.7279C15.4072 10.9744 15.8028 10.9784 16.0493 10.7368C16.7952 10.0386 17.9548 10.0386 18.7007 10.7368C18.8177 10.8542 18.9768 10.9202 19.1426 10.9199C19.3083 10.9198 19.4673 10.8541 19.5844 10.737C19.8285 10.4929 19.8285 10.0972 19.5845 9.85303C18.3485 8.67146 16.4016 8.67146 15.1655 9.85303Z" fill="#FD5050"/>
</svg>
