<svg width="28" height="25" viewBox="0 0 28 25" fill="none" xmlns="http://www.w3.org/2000/svg">
<circle cx="7.5" cy="7.5" r="7.5" fill="#FF6B1A"/>
<path d="M25.2702 22.0339L20.935 17.6987C22.4194 16.0405 23.3306 13.8585 23.3333 11.4583C23.3333 6.28056 19.1359 2.08325 13.9583 2.08325C8.78056 2.08325 4.58325 6.28056 4.58325 11.4583C4.58325 16.6359 8.78056 20.8333 13.9583 20.8333C16.3584 20.8306 18.5404 19.9195 20.1985 18.4351L24.5337 22.7704C24.7356 22.9653 25.0556 22.9653 25.2574 22.7704C25.4643 22.5705 25.4701 22.2408 25.2702 22.0339ZM13.9583 19.7916C9.35588 19.7916 5.62492 16.0606 5.62492 11.4583C5.62492 6.85588 9.35588 3.12492 13.9583 3.12492C18.5585 3.1302 22.2863 6.85804 22.2916 11.4583C22.2916 16.0606 18.5606 19.7916 13.9583 19.7916Z" fill="#FF6B1A"/>
</svg>
