<svg width="16" height="16" viewBox="0 0 16 16" fill="none" xmlns="http://www.w3.org/2000/svg">
<path fill-rule="evenodd" clip-rule="evenodd" d="M15.1792 6.02385C15.3842 6.05393 15.5261 6.24454 15.4959 6.44957C15.484 6.53078 15.4458 6.60585 15.3872 6.66326L11.9653 10.009L12.7732 14.7338C12.8077 14.9383 12.67 15.132 12.4655 15.1666C12.4449 15.1701 12.4242 15.1718 12.4033 15.1718C12.3423 15.1717 12.2823 15.1568 12.2282 15.1286L7.99996 12.8991L3.77169 15.1286C3.58822 15.2251 3.36122 15.1546 3.26472 14.9712C3.22636 14.8984 3.21304 14.815 3.22677 14.7338L4.03463 10.009L0.612757 6.66326C0.464671 6.51828 0.462107 6.2807 0.607081 6.13262C0.664485 6.07398 0.739558 6.03575 0.820765 6.02385L5.54928 5.33464L7.66378 1.03752C7.77301 0.851855 8.0121 0.789919 8.19776 0.899142C8.25489 0.932742 8.30255 0.980395 8.33615 1.03752L10.4506 5.33464L15.1792 6.02385Z" fill="#FF6B1A"/>
</svg>
